<svg width="14" height="14" viewBox="0 0 14 14" fill="none" xmlns="http://www.w3.org/2000/svg">
<path d="M7.09375 0.0625C5.72783 0.0625 4.39257 0.467544 3.25685 1.22641C2.12112 1.98528 1.23593 3.06389 0.71321 4.32584C0.190492 5.58779 0.0537256 6.97641 0.320205 8.31609C0.586684 9.65577 1.24444 10.8863 2.2103 11.8522C3.17615 12.8181 4.40673 13.4758 5.74641 13.7423C7.08609 14.0088 8.47471 13.872 9.73666 13.3493C10.9986 12.8266 12.0772 11.9414 12.8361 10.8057C13.595 9.66993 14 8.33468 14 6.96875C13.9981 5.13769 13.2698 3.38218 11.9751 2.08743C10.6803 0.792675 8.92481 0.0644336 7.09375 0.0625ZM7.09375 12.8125C5.93797 12.8125 4.80814 12.4698 3.84714 11.8276C2.88614 11.1855 2.13713 10.2729 1.69483 9.20506C1.25253 8.13725 1.13681 6.96227 1.36229 5.82869C1.58777 4.69511 2.14433 3.65386 2.9616 2.83659C3.77886 2.01933 4.82012 1.46277 5.95369 1.23729C7.08727 1.0118 8.26225 1.12753 9.33006 1.56983C10.3979 2.01213 11.3105 2.76114 11.9527 3.72214C12.5948 4.68314 12.9375 5.81296 12.9375 6.96875C12.9357 8.51807 12.3195 10.0034 11.224 11.099C10.1284 12.1945 8.64307 12.8107 7.09375 12.8125ZM4.96875 6.96875C4.96875 7.41475 5.10908 7.84944 5.36986 8.21126C5.63064 8.57307 5.99866 8.84366 6.42177 8.9847C6.84488 9.12574 7.30165 9.13007 7.72736 8.99709C8.15307 8.86411 8.52615 8.60055 8.79375 8.24375C8.87838 8.13103 9.00431 8.05655 9.14386 8.03669C9.2834 8.01682 9.42512 8.05321 9.53783 8.13783C9.65055 8.22246 9.72503 8.34839 9.7449 8.48794C9.76476 8.62748 9.72838 8.7692 9.64375 8.88191C9.24225 9.41695 8.68261 9.81212 8.04406 10.0114C7.40552 10.2108 6.72046 10.2042 6.08588 9.99255C5.45131 9.78093 4.89939 9.37503 4.50829 8.83234C4.1172 8.28965 3.90675 7.63768 3.90675 6.96875C3.90675 6.29982 4.1172 5.64784 4.50829 5.10515C4.89939 4.56246 5.45131 4.15657 6.08588 3.94495C6.72046 3.73334 7.40552 3.72672 8.04406 3.92605C8.68261 4.12538 9.24225 4.52055 9.64375 5.05559C9.68565 5.1114 9.71615 5.17492 9.73351 5.24251C9.75086 5.31011 9.75473 5.38047 9.7449 5.44956C9.73506 5.51866 9.71171 5.58514 9.67619 5.64521C9.64066 5.70528 9.59365 5.75776 9.53783 5.79967C9.48202 5.84157 9.4185 5.87207 9.3509 5.88942C9.28331 5.90678 9.21295 5.91065 9.14386 5.90081C9.07476 5.89098 9.00828 5.86763 8.94821 5.8321C8.88814 5.79657 8.83566 5.74956 8.79375 5.69375C8.52615 5.33695 8.15307 5.07339 7.72736 4.94041C7.30165 4.80743 6.84488 4.81176 6.42177 4.9528C5.99866 5.09384 5.63064 5.36443 5.36986 5.72624C5.10908 6.08805 4.96875 6.52275 4.96875 6.96875Z" fill="#F3F3F3"/>
</svg>