<svg viewBox="0 0 209 32" fill="none" xmlns="http://www.w3.org/2000/svg">
<path d="M7.36364 25.2841C6.03788 25.2841 4.83712 24.9432 3.76136 24.2614C2.69318 23.572 1.8447 22.5606 1.21591 21.2273C0.594697 19.8864 0.284091 18.2424 0.284091 16.2955C0.284091 14.2955 0.606061 12.6326 1.25 11.3068C1.89394 9.97348 2.75 8.97727 3.81818 8.31818C4.89394 7.65152 6.07197 7.31818 7.35227 7.31818C8.32955 7.31818 9.14394 7.48485 9.79545 7.81818C10.4545 8.14394 10.9848 8.55303 11.3864 9.04545C11.7955 9.5303 12.1061 10.0076 12.3182 10.4773H12.4659V1.72727H17.2955V25H12.5227V22.2045H12.3182C12.0909 22.6894 11.7689 23.1705 11.3523 23.6477C10.9432 24.1174 10.4091 24.5076 9.75 24.8182C9.09849 25.1288 8.30303 25.2841 7.36364 25.2841ZM8.89773 21.4318C9.67803 21.4318 10.3371 21.2197 10.875 20.7955C11.4205 20.3636 11.8371 19.7614 12.125 18.9886C12.4205 18.2159 12.5682 17.3106 12.5682 16.2727C12.5682 15.2348 12.4242 14.3333 12.1364 13.5682C11.8485 12.803 11.4318 12.2121 10.8864 11.7955C10.3409 11.3788 9.67803 11.1705 8.89773 11.1705C8.10227 11.1705 7.43182 11.3864 6.88636 11.8182C6.34091 12.25 5.92803 12.8485 5.64773 13.6136C5.36742 14.3788 5.22727 15.2652 5.22727 16.2727C5.22727 17.2879 5.36742 18.1856 5.64773 18.9659C5.93561 19.7386 6.34848 20.3447 6.88636 20.7841C7.43182 21.2159 8.10227 21.4318 8.89773 21.4318ZM29.2301 25.3409C27.4347 25.3409 25.8892 24.9773 24.5938 24.25C23.3059 23.5152 22.3134 22.4773 21.6165 21.1364C20.9195 19.7879 20.571 18.1932 20.571 16.3523C20.571 14.5568 20.9195 12.9811 21.6165 11.625C22.3134 10.2689 23.2945 9.21212 24.5597 8.45454C25.8324 7.69697 27.3248 7.31818 29.0369 7.31818C30.1884 7.31818 31.2604 7.50379 32.2528 7.875C33.2528 8.23864 34.1241 8.78788 34.8665 9.52273C35.6165 10.2576 36.1998 11.1818 36.6165 12.2955C37.0331 13.4015 37.2415 14.697 37.2415 16.1818V17.5114H22.5028V14.5114H32.6847C32.6847 13.8144 32.5331 13.197 32.2301 12.6591C31.9271 12.1212 31.5066 11.7008 30.9688 11.3977C30.4384 11.0871 29.821 10.9318 29.1165 10.9318C28.3816 10.9318 27.7301 11.1023 27.1619 11.4432C26.6013 11.7765 26.1619 12.2273 25.8438 12.7955C25.5256 13.3561 25.3627 13.9811 25.3551 14.6705V17.5227C25.3551 18.3864 25.5142 19.1326 25.8324 19.7614C26.1581 20.3902 26.6165 20.875 27.2074 21.2159C27.7983 21.5568 28.4991 21.7273 29.3097 21.7273C29.8475 21.7273 30.34 21.6515 30.7869 21.5C31.2339 21.3485 31.6165 21.1212 31.9347 20.8182C32.2528 20.5152 32.4953 20.1439 32.6619 19.7045L37.1392 20C36.9119 21.0758 36.446 22.0152 35.7415 22.8182C35.0445 23.6136 34.143 24.2348 33.0369 24.6818C31.9384 25.1212 30.6695 25.3409 29.2301 25.3409ZM54.9233 12.5227L50.4915 12.7955C50.4157 12.4167 50.2528 12.0758 50.0028 11.7727C49.7528 11.4621 49.4233 11.2159 49.0142 11.0341C48.6127 10.8447 48.1316 10.75 47.571 10.75C46.821 10.75 46.1884 10.9091 45.6733 11.2273C45.1581 11.5379 44.9006 11.9545 44.9006 12.4773C44.9006 12.8939 45.0672 13.2462 45.4006 13.5341C45.7339 13.822 46.3059 14.053 47.1165 14.2273L50.2756 14.8636C51.9725 15.2121 53.2377 15.7727 54.071 16.5455C54.9044 17.3182 55.321 18.3333 55.321 19.5909C55.321 20.7348 54.9839 21.7386 54.3097 22.6023C53.643 23.4659 52.7263 24.1402 51.5597 24.625C50.4006 25.1023 49.0634 25.3409 47.5483 25.3409C45.2377 25.3409 43.3968 24.8598 42.0256 23.8977C40.6619 22.928 39.8627 21.6098 39.6278 19.9432L44.3892 19.6932C44.5331 20.3977 44.8816 20.9356 45.4347 21.3068C45.9877 21.6705 46.696 21.8523 47.5597 21.8523C48.4081 21.8523 49.09 21.6894 49.6051 21.3636C50.1278 21.0303 50.393 20.6023 50.4006 20.0795C50.393 19.6402 50.2074 19.2803 49.8438 19C49.4801 18.7121 48.9195 18.4924 48.1619 18.3409L45.1392 17.7386C43.4347 17.3977 42.1657 16.8068 41.3324 15.9659C40.5066 15.125 40.0938 14.053 40.0938 12.75C40.0938 11.6288 40.3968 10.6629 41.0028 9.85227C41.6165 9.04167 42.4763 8.41667 43.5824 7.97727C44.696 7.53788 45.9991 7.31818 47.4915 7.31818C49.696 7.31818 51.4309 7.78409 52.696 8.71591C53.9688 9.64773 54.7112 10.9167 54.9233 12.5227ZM58.3693 25V7.54545H63.2102V25H58.3693ZM60.8011 5.29545C60.0814 5.29545 59.464 5.05682 58.9489 4.57954C58.4413 4.0947 58.1875 3.51515 58.1875 2.84091C58.1875 2.17424 58.4413 1.60227 58.9489 1.125C59.464 0.640151 60.0814 0.397726 60.8011 0.397726C61.5208 0.397726 62.1345 0.640151 62.642 1.125C63.1572 1.60227 63.4148 2.17424 63.4148 2.84091C63.4148 3.51515 63.1572 4.0947 62.642 4.57954C62.1345 5.05682 61.5208 5.29545 60.8011 5.29545ZM74.9517 31.9091C73.3835 31.9091 72.0388 31.6932 70.9176 31.2614C69.804 30.8371 68.9176 30.2576 68.2585 29.5227C67.5994 28.7879 67.1714 27.9621 66.9744 27.0455L71.4517 26.4432C71.5881 26.7917 71.804 27.1174 72.0994 27.4205C72.3949 27.7235 72.785 27.9659 73.2699 28.1477C73.7623 28.3371 74.3608 28.4318 75.0653 28.4318C76.1184 28.4318 76.9858 28.1742 77.6676 27.6591C78.357 27.1515 78.7017 26.2992 78.7017 25.1023V21.9091H78.4972C78.285 22.3939 77.9669 22.8523 77.5426 23.2841C77.1184 23.7159 76.5729 24.0682 75.9062 24.3409C75.2396 24.6136 74.4441 24.75 73.5199 24.75C72.2093 24.75 71.0161 24.447 69.9403 23.8409C68.8722 23.2273 68.0199 22.2917 67.3835 21.0341C66.7547 19.7689 66.4403 18.1705 66.4403 16.2386C66.4403 14.2614 66.7623 12.6098 67.4062 11.2841C68.0502 9.95833 68.9063 8.96591 69.9744 8.30682C71.0502 7.64773 72.2282 7.31818 73.5085 7.31818C74.4858 7.31818 75.304 7.48485 75.9631 7.81818C76.6222 8.14394 77.1525 8.55303 77.554 9.04545C77.9631 9.5303 78.2775 10.0076 78.4972 10.4773H78.679V7.54545H83.4858V25.1705C83.4858 26.6553 83.1222 27.8977 82.3949 28.8977C81.6676 29.8977 80.66 30.6477 79.3722 31.1477C78.0919 31.6553 76.6184 31.9091 74.9517 31.9091ZM75.054 21.1136C75.8343 21.1136 76.4934 20.9205 77.0312 20.5341C77.5767 20.1402 77.9934 19.5795 78.2812 18.8523C78.5767 18.1174 78.7244 17.2386 78.7244 16.2159C78.7244 15.1932 78.5805 14.3068 78.2926 13.5568C78.0047 12.7992 77.5881 12.2121 77.0426 11.7955C76.4972 11.3788 75.8343 11.1705 75.054 11.1705C74.2585 11.1705 73.5881 11.3864 73.0426 11.8182C72.4972 12.2424 72.0843 12.8333 71.804 13.5909C71.5237 14.3485 71.3835 15.2235 71.3835 16.2159C71.3835 17.2235 71.5237 18.0947 71.804 18.8295C72.0919 19.5568 72.5047 20.1212 73.0426 20.5227C73.5881 20.9167 74.2585 21.1136 75.054 21.1136ZM92.179 14.9091V25H87.3381V7.54545H91.9517V10.625H92.1562C92.5426 9.60985 93.1903 8.80682 94.0994 8.21591C95.0085 7.61742 96.1108 7.31818 97.4062 7.31818C98.6184 7.31818 99.6752 7.58333 100.577 8.11364C101.478 8.64394 102.179 9.40151 102.679 10.3864C103.179 11.3636 103.429 12.5303 103.429 13.8864V25H98.5881V14.75C98.5956 13.6818 98.3229 12.8485 97.7699 12.25C97.2169 11.6439 96.4555 11.3409 95.4858 11.3409C94.8343 11.3409 94.2585 11.4811 93.7585 11.7614C93.2661 12.0417 92.8797 12.4508 92.5994 12.9886C92.3267 13.5189 92.1866 14.1591 92.179 14.9091ZM112.222 25.3295C111.108 25.3295 110.116 25.1364 109.244 24.75C108.373 24.3561 107.684 23.7765 107.176 23.0114C106.676 22.2386 106.426 21.2765 106.426 20.125C106.426 19.1553 106.604 18.3409 106.96 17.6818C107.316 17.0227 107.801 16.4924 108.415 16.0909C109.028 15.6894 109.725 15.3864 110.506 15.1818C111.294 14.9773 112.119 14.8333 112.983 14.75C113.998 14.6439 114.816 14.5455 115.438 14.4545C116.059 14.3561 116.509 14.2121 116.79 14.0227C117.07 13.8333 117.21 13.553 117.21 13.1818V13.1136C117.21 12.3939 116.983 11.8371 116.528 11.4432C116.081 11.0492 115.445 10.8523 114.619 10.8523C113.748 10.8523 113.055 11.0455 112.54 11.4318C112.025 11.8106 111.684 12.2879 111.517 12.8636L107.04 12.5C107.267 11.4394 107.714 10.5227 108.381 9.75C109.047 8.9697 109.907 8.37121 110.96 7.95454C112.021 7.5303 113.248 7.31818 114.642 7.31818C115.612 7.31818 116.54 7.43182 117.426 7.65909C118.32 7.88636 119.112 8.23864 119.801 8.71591C120.498 9.19318 121.047 9.80682 121.449 10.5568C121.85 11.2992 122.051 12.1894 122.051 13.2273V25H117.46V22.5795H117.324C117.044 23.125 116.669 23.6061 116.199 24.0227C115.729 24.4318 115.165 24.7538 114.506 24.9886C113.847 25.2159 113.085 25.3295 112.222 25.3295ZM113.608 21.9886C114.32 21.9886 114.949 21.8485 115.494 21.5682C116.04 21.2803 116.468 20.8939 116.778 20.4091C117.089 19.9242 117.244 19.375 117.244 18.7614V16.9091C117.093 17.0076 116.884 17.0985 116.619 17.1818C116.362 17.2576 116.07 17.3295 115.744 17.3977C115.419 17.4583 115.093 17.5152 114.767 17.5682C114.441 17.6136 114.146 17.6553 113.881 17.6932C113.313 17.7765 112.816 17.9091 112.392 18.0909C111.968 18.2727 111.638 18.5189 111.403 18.8295C111.169 19.1326 111.051 19.5114 111.051 19.9659C111.051 20.625 111.29 21.1288 111.767 21.4773C112.252 21.8182 112.866 21.9886 113.608 21.9886ZM130.648 1.72727V25H125.807V1.72727H130.648ZM137.514 31.5455C136.901 31.5455 136.325 31.4962 135.787 31.3977C135.257 31.3068 134.817 31.1894 134.469 31.0455L135.56 27.4318C136.128 27.6061 136.639 27.7008 137.094 27.7159C137.556 27.7311 137.954 27.625 138.287 27.3977C138.628 27.1705 138.904 26.7841 139.116 26.2386L139.401 25.5L133.139 7.54545H138.23L141.844 20.3636H142.026L145.673 7.54545H150.798L144.014 26.8864C143.688 27.8258 143.245 28.6439 142.685 29.3409C142.132 30.0455 141.431 30.5871 140.582 30.9659C139.734 31.3523 138.711 31.5455 137.514 31.5455ZM162.56 7.54545V11.1818H152.048V7.54545H162.56ZM154.435 3.36364H159.276V19.6364C159.276 20.0833 159.344 20.4318 159.48 20.6818C159.616 20.9242 159.806 21.0947 160.048 21.1932C160.298 21.2917 160.586 21.3409 160.912 21.3409C161.139 21.3409 161.366 21.322 161.594 21.2841C161.821 21.2386 161.995 21.2045 162.116 21.1818L162.878 24.7841C162.635 24.8598 162.295 24.947 161.855 25.0455C161.416 25.1515 160.882 25.2159 160.253 25.2386C159.086 25.2841 158.063 25.1288 157.185 24.7727C156.313 24.4167 155.635 23.8636 155.151 23.1136C154.666 22.3636 154.427 21.4167 154.435 20.2727V3.36364ZM165.713 25V7.54545H170.554V25H165.713ZM168.145 5.29545C167.425 5.29545 166.808 5.05682 166.293 4.57954C165.785 4.0947 165.531 3.51515 165.531 2.84091C165.531 2.17424 165.785 1.60227 166.293 1.125C166.808 0.640151 167.425 0.397726 168.145 0.397726C168.865 0.397726 169.478 0.640151 169.986 1.125C170.501 1.60227 170.759 2.17424 170.759 2.84091C170.759 3.51515 170.501 4.0947 169.986 4.57954C169.478 5.05682 168.865 5.29545 168.145 5.29545ZM182.318 25.3409C180.53 25.3409 178.992 24.9621 177.705 24.2045C176.424 23.4394 175.439 22.3788 174.75 21.0227C174.068 19.6667 173.727 18.1061 173.727 16.3409C173.727 14.553 174.072 12.9848 174.761 11.6364C175.458 10.2803 176.447 9.22348 177.727 8.46591C179.008 7.70076 180.53 7.31818 182.295 7.31818C183.818 7.31818 185.152 7.5947 186.295 8.14773C187.439 8.70076 188.345 9.47727 189.011 10.4773C189.678 11.4773 190.045 12.6515 190.114 14H185.545C185.417 13.1288 185.076 12.428 184.523 11.8977C183.977 11.3598 183.261 11.0909 182.375 11.0909C181.625 11.0909 180.97 11.2955 180.409 11.7045C179.856 12.1061 179.424 12.6932 179.114 13.4659C178.803 14.2386 178.648 15.1742 178.648 16.2727C178.648 17.3864 178.799 18.3333 179.102 19.1136C179.413 19.8939 179.848 20.4886 180.409 20.8977C180.97 21.3068 181.625 21.5114 182.375 21.5114C182.928 21.5114 183.424 21.3977 183.864 21.1705C184.311 20.9432 184.678 20.6136 184.966 20.1818C185.261 19.7424 185.455 19.2159 185.545 18.6023H190.114C190.038 19.9356 189.674 21.1098 189.023 22.125C188.379 23.1326 187.489 23.9205 186.352 24.4886C185.216 25.0568 183.871 25.3409 182.318 25.3409ZM207.736 12.5227L203.304 12.7955C203.228 12.4167 203.065 12.0758 202.815 11.7727C202.565 11.4621 202.236 11.2159 201.827 11.0341C201.425 10.8447 200.944 10.75 200.384 10.75C199.634 10.75 199.001 10.9091 198.486 11.2273C197.971 11.5379 197.713 11.9545 197.713 12.4773C197.713 12.8939 197.88 13.2462 198.213 13.5341C198.546 13.822 199.118 14.053 199.929 14.2273L203.088 14.8636C204.785 15.2121 206.05 15.7727 206.884 16.5455C207.717 17.3182 208.134 18.3333 208.134 19.5909C208.134 20.7348 207.796 21.7386 207.122 22.6023C206.455 23.4659 205.539 24.1402 204.372 24.625C203.213 25.1023 201.876 25.3409 200.361 25.3409C198.05 25.3409 196.209 24.8598 194.838 23.8977C193.474 22.928 192.675 21.6098 192.44 19.9432L197.202 19.6932C197.346 20.3977 197.694 20.9356 198.247 21.3068C198.8 21.6705 199.509 21.8523 200.372 21.8523C201.221 21.8523 201.902 21.6894 202.418 21.3636C202.94 21.0303 203.205 20.6023 203.213 20.0795C203.205 19.6402 203.02 19.2803 202.656 19C202.293 18.7121 201.732 18.4924 200.974 18.3409L197.952 17.7386C196.247 17.3977 194.978 16.8068 194.145 15.9659C193.319 15.125 192.906 14.053 192.906 12.75C192.906 11.6288 193.209 10.6629 193.815 9.85227C194.429 9.04167 195.289 8.41667 196.395 7.97727C197.509 7.53788 198.812 7.31818 200.304 7.31818C202.509 7.31818 204.243 7.78409 205.509 8.71591C206.781 9.64773 207.524 10.9167 207.736 12.5227Z" fill="#5E85F8"/>
</svg>
