<svg width="248" height="72" viewBox="0 0 248 72" fill="none" xmlns="http://www.w3.org/2000/svg">
<path d="M61.9119 36.0012C61.9119 50.5879 50.0873 62.4126 35.5009 62.4126C20.9145 62.4126 9.08984 50.5879 9.08984 36.0012C9.08984 21.4146 20.9145 9.58984 35.5009 9.58984C50.0873 9.58984 61.9119 21.4146 61.9119 36.0012Z" stroke="#6D5241" stroke-width="2"/>
<path d="M69.9991 36C69.9991 55.0538 54.5531 70.5 35.4996 70.5C16.446 70.5 1 55.0538 1 36C1 16.9462 16.446 1.5 35.4996 1.5C54.5531 1.5 69.9991 16.9462 69.9991 36Z" stroke="#6D5241" stroke-width="2"/>
<ellipse cx="53.4739" cy="10.8353" rx="4.04425" ry="4.0443" fill="#6D5241"/>
<ellipse cx="64.2571" cy="23.4183" rx="4.04425" ry="4.0443" fill="#6D5241"/>
<ellipse cx="66.9564" cy="36.0004" rx="4.04425" ry="4.0443" fill="#6D5241"/>
<ellipse cx="63.3587" cy="50.3793" rx="4.04425" ry="4.0443" fill="#6D5241"/>
<ellipse cx="53.4739" cy="61.1634" rx="4.04425" ry="4.0443" fill="#6D5241"/>
<ellipse cx="35.4993" cy="67.4554" rx="4.04425" ry="4.0443" fill="#6D5241"/>
<ellipse cx="18.4271" cy="62.0619" rx="4.04425" ry="4.0443" fill="#6D5241"/>
<ellipse cx="7.63996" cy="50.3793" rx="4.04425" ry="4.0443" fill="#6D5241"/>
<ellipse cx="4.94074" cy="36.0004" rx="4.04425" ry="4.0443" fill="#6D5241"/>
<ellipse cx="9.04425" cy="21.0443" rx="4.04425" ry="4.0443" fill="#6D5241"/>
<ellipse cx="18.4271" cy="9.93688" rx="4.04425" ry="4.0443" fill="#6D5241"/>
<ellipse cx="35.4993" cy="5.44274" rx="4.04425" ry="4.0443" fill="#6D5241"/>
<path d="M41.5283 47H29.6055V26.2979H41.5283V29.8945H33.9951V34.4399H41.0044V38.0366H33.9951V43.375H41.5283V47ZM60.0498 31.1689V47H56.7363L56.1558 44.9751H55.9292C55.5894 45.5132 55.1646 45.9521 54.6548 46.292C54.145 46.6318 53.5833 46.882 52.9697 47.0425C52.3561 47.203 51.7189 47.2832 51.0581 47.2832C49.9253 47.2832 48.9388 47.085 48.0986 46.6885C47.2585 46.2826 46.6024 45.6548 46.1304 44.8052C45.6678 43.9556 45.4365 42.8511 45.4365 41.4917V31.1689H49.7554V40.4155C49.7554 41.5483 49.9583 42.4027 50.3643 42.9785C50.7702 43.5544 51.4168 43.8423 52.3042 43.8423C53.1821 43.8423 53.8713 43.644 54.3716 43.2476C54.8719 42.8416 55.2212 42.2516 55.4194 41.4775C55.6271 40.694 55.731 39.7406 55.731 38.6172V31.1689H60.0498ZM73.417 30.8716C73.6341 30.8716 73.8843 30.8857 74.1675 30.9141C74.4601 30.9329 74.6961 30.9613 74.8755 30.999L74.5498 35.0488C74.4082 35.0016 74.2052 34.9686 73.9409 34.9497C73.686 34.9214 73.4642 34.9072 73.2754 34.9072C72.7184 34.9072 72.1756 34.978 71.647 35.1196C71.1278 35.2612 70.6605 35.4925 70.2451 35.8135C69.8298 36.125 69.4993 36.5404 69.2539 37.0596C69.0179 37.5693 68.8999 38.1971 68.8999 38.9429V47H64.5811V31.1689H67.8521L68.4893 33.8311H68.7017C69.0132 33.293 69.4002 32.8021 69.8628 32.3584C70.3348 31.9053 70.8682 31.5465 71.4629 31.2822C72.0671 31.0085 72.7184 30.8716 73.417 30.8716ZM84.2778 30.8716C85.741 30.8716 87.0013 31.1548 88.0586 31.7212C89.1159 32.2782 89.9325 33.09 90.5083 34.1567C91.0841 35.2235 91.3721 36.5262 91.3721 38.0649V40.1606H81.1626C81.2098 41.3784 81.5732 42.3366 82.2529 43.0352C82.9421 43.7243 83.8955 44.0688 85.1133 44.0688C86.1234 44.0688 87.0485 43.965 87.8887 43.7573C88.7288 43.5496 89.5926 43.2381 90.48 42.8228V46.1646C89.6965 46.5516 88.8752 46.8348 88.0161 47.0142C87.1665 47.1935 86.1328 47.2832 84.915 47.2832C83.3291 47.2832 81.9225 46.9906 80.6953 46.4053C79.4775 45.82 78.5194 44.9279 77.8208 43.729C77.1317 42.5301 76.7871 41.0197 76.7871 39.1978C76.7871 37.3475 77.0986 35.8088 77.7217 34.5815C78.3542 33.3449 79.2321 32.4198 80.3555 31.8062C81.4788 31.1831 82.7863 30.8716 84.2778 30.8716ZM84.3062 33.9443C83.466 33.9443 82.7674 34.2134 82.2104 34.7515C81.6629 35.2896 81.3467 36.1344 81.2617 37.2861H87.3223C87.3128 36.6442 87.1948 36.0731 86.9683 35.5728C86.7511 35.0724 86.4207 34.6759 85.9771 34.3833C85.5428 34.0907 84.9858 33.9443 84.3062 33.9443ZM99.2026 24.9668V34.8223C99.2026 35.417 99.179 36.0117 99.1318 36.6064C99.0846 37.2012 99.0327 37.7959 98.9761 38.3906H99.0327C99.3254 37.9753 99.6227 37.5646 99.9248 37.1587C100.236 36.7528 100.567 36.361 100.916 35.9834L105.348 31.1689H110.219L103.932 38.0366L110.602 47H105.617L101.058 40.5854L99.2026 42.0723V47H94.8838V24.9668H99.2026ZM119.353 30.8433C121.477 30.8433 123.105 31.3058 124.238 32.231C125.371 33.1561 125.937 34.5627 125.937 36.4507V47H122.921L122.085 44.8477H121.972C121.519 45.4141 121.056 45.8766 120.584 46.2354C120.112 46.5941 119.57 46.8584 118.956 47.0283C118.342 47.1982 117.597 47.2832 116.719 47.2832C115.784 47.2832 114.944 47.1038 114.198 46.7451C113.462 46.3864 112.881 45.8389 112.457 45.1025C112.032 44.3568 111.819 43.4128 111.819 42.2705C111.819 40.5902 112.409 39.3535 113.589 38.5605C114.769 37.7581 116.539 37.3145 118.899 37.2295L121.646 37.1445V36.4507C121.646 35.62 121.429 35.0111 120.995 34.624C120.561 34.237 119.957 34.0435 119.183 34.0435C118.418 34.0435 117.667 34.152 116.931 34.3691C116.195 34.5863 115.458 34.86 114.722 35.1904L113.292 32.2734C114.132 31.8298 115.071 31.4805 116.11 31.2256C117.158 30.9707 118.239 30.8433 119.353 30.8433ZM121.646 39.665L119.976 39.7217C118.578 39.7594 117.606 40.0096 117.059 40.4722C116.521 40.9347 116.251 41.5436 116.251 42.2988C116.251 42.9596 116.445 43.4316 116.832 43.7148C117.219 43.9886 117.724 44.1255 118.347 44.1255C119.272 44.1255 120.051 43.8517 120.684 43.3042C121.326 42.7567 121.646 41.9779 121.646 40.9678V39.665ZM138.271 26.2979H144.713C147.47 26.2979 149.556 26.6849 150.972 27.459C152.388 28.2331 153.096 29.5924 153.096 31.5371C153.096 32.3206 152.969 33.0286 152.714 33.6611C152.468 34.2936 152.11 34.8128 151.638 35.2188C151.166 35.6247 150.59 35.889 149.91 36.0117V36.1533C150.599 36.2949 151.222 36.5404 151.779 36.8896C152.336 37.2295 152.78 37.7298 153.11 38.3906C153.45 39.042 153.62 39.9105 153.62 40.9961C153.62 42.2516 153.313 43.3278 152.7 44.2246C152.086 45.1214 151.208 45.8105 150.066 46.292C148.933 46.764 147.583 47 146.016 47H138.271V26.2979ZM142.66 34.4966H145.209C146.483 34.4966 147.366 34.2983 147.857 33.9019C148.348 33.4959 148.593 32.9012 148.593 32.1177C148.593 31.3247 148.301 30.7583 147.715 30.4185C147.139 30.0692 146.224 29.8945 144.968 29.8945H142.66V34.4966ZM142.66 37.98V43.375H145.521C146.842 43.375 147.763 43.1201 148.282 42.6104C148.801 42.1006 149.061 41.4162 149.061 40.5571C149.061 40.0474 148.947 39.599 148.721 39.2119C148.494 38.8249 148.112 38.5228 147.574 38.3057C147.045 38.0885 146.313 37.98 145.379 37.98H142.66ZM163.943 30.8716C165.406 30.8716 166.666 31.1548 167.724 31.7212C168.781 32.2782 169.597 33.09 170.173 34.1567C170.749 35.2235 171.037 36.5262 171.037 38.0649V40.1606H160.828C160.875 41.3784 161.238 42.3366 161.918 43.0352C162.607 43.7243 163.561 44.0688 164.778 44.0688C165.788 44.0688 166.714 43.965 167.554 43.7573C168.394 43.5496 169.258 43.2381 170.145 42.8228V46.1646C169.361 46.5516 168.54 46.8348 167.681 47.0142C166.832 47.1935 165.798 47.2832 164.58 47.2832C162.994 47.2832 161.588 46.9906 160.36 46.4053C159.143 45.82 158.184 44.9279 157.486 43.729C156.797 42.5301 156.452 41.0197 156.452 39.1978C156.452 37.3475 156.764 35.8088 157.387 34.5815C158.019 33.3449 158.897 32.4198 160.021 31.8062C161.144 31.1831 162.451 30.8716 163.943 30.8716ZM163.971 33.9443C163.131 33.9443 162.432 34.2134 161.875 34.7515C161.328 35.2896 161.012 36.1344 160.927 37.2861H166.987C166.978 36.6442 166.86 36.0731 166.633 35.5728C166.416 35.0724 166.086 34.6759 165.642 34.3833C165.208 34.0907 164.651 33.9443 163.971 33.9443ZM181.034 30.8433C183.158 30.8433 184.787 31.3058 185.919 32.231C187.052 33.1561 187.619 34.5627 187.619 36.4507V47H184.603L183.767 44.8477H183.654C183.201 45.4141 182.738 45.8766 182.266 46.2354C181.794 46.5941 181.251 46.8584 180.638 47.0283C180.024 47.1982 179.278 47.2832 178.4 47.2832C177.466 47.2832 176.626 47.1038 175.88 46.7451C175.144 46.3864 174.563 45.8389 174.138 45.1025C173.713 44.3568 173.501 43.4128 173.501 42.2705C173.501 40.5902 174.091 39.3535 175.271 38.5605C176.451 37.7581 178.221 37.3145 180.581 37.2295L183.328 37.1445V36.4507C183.328 35.62 183.111 35.0111 182.677 34.624C182.243 34.237 181.638 34.0435 180.864 34.0435C180.1 34.0435 179.349 34.152 178.613 34.3691C177.876 34.5863 177.14 34.86 176.404 35.1904L174.974 32.2734C175.814 31.8298 176.753 31.4805 177.792 31.2256C178.839 30.9707 179.92 30.8433 181.034 30.8433ZM183.328 39.665L181.657 39.7217C180.26 39.7594 179.288 40.0096 178.74 40.4722C178.202 40.9347 177.933 41.5436 177.933 42.2988C177.933 42.9596 178.127 43.4316 178.514 43.7148C178.901 43.9886 179.406 44.1255 180.029 44.1255C180.954 44.1255 181.733 43.8517 182.365 43.3042C183.007 42.7567 183.328 41.9779 183.328 40.9678V39.665ZM200.915 30.8716C201.132 30.8716 201.382 30.8857 201.666 30.9141C201.958 30.9329 202.194 30.9613 202.374 30.999L202.048 35.0488C201.906 35.0016 201.703 34.9686 201.439 34.9497C201.184 34.9214 200.962 34.9072 200.773 34.9072C200.216 34.9072 199.674 34.978 199.145 35.1196C198.626 35.2612 198.159 35.4925 197.743 35.8135C197.328 36.125 196.997 36.5404 196.752 37.0596C196.516 37.5693 196.398 38.1971 196.398 38.9429V47H192.079V31.1689H195.35L195.987 33.8311H196.2C196.511 33.293 196.898 32.8021 197.361 32.3584C197.833 31.9053 198.366 31.5465 198.961 31.2822C199.565 31.0085 200.216 30.8716 200.915 30.8716ZM209.567 31.1689V47H205.248V31.1689H209.567ZM207.415 24.9668C208.056 24.9668 208.609 25.1178 209.071 25.4199C209.534 25.7126 209.765 26.2648 209.765 27.0767C209.765 27.8791 209.534 28.436 209.071 28.7476C208.609 29.0496 208.056 29.2007 207.415 29.2007C206.763 29.2007 206.206 29.0496 205.744 28.7476C205.291 28.436 205.064 27.8791 205.064 27.0767C205.064 26.2648 205.291 25.7126 205.744 25.4199C206.206 25.1178 206.763 24.9668 207.415 24.9668ZM223.104 30.8716C224.794 30.8716 226.153 31.3341 227.182 32.2593C228.211 33.175 228.726 34.6476 228.726 36.6772V47H224.407V37.7534C224.407 36.6206 224.199 35.7663 223.784 35.1904C223.378 34.6146 222.736 34.3267 221.858 34.3267C220.536 34.3267 219.635 34.7751 219.153 35.6719C218.672 36.5687 218.431 37.862 218.431 39.5518V47H214.112V31.1689H217.412L217.992 33.1938H218.233C218.573 32.6463 218.993 32.2026 219.493 31.8628C220.003 31.5229 220.565 31.2728 221.178 31.1123C221.801 30.9518 222.443 30.8716 223.104 30.8716ZM237.802 53.9668C235.593 53.9668 233.903 53.5798 232.733 52.8057C231.572 52.041 230.991 50.9648 230.991 49.5771C230.991 48.6237 231.289 47.826 231.883 47.1841C232.478 46.5422 233.351 46.0843 234.503 45.8105C234.059 45.6217 233.672 45.3149 233.342 44.8901C233.011 44.4559 232.846 43.998 232.846 43.5166C232.846 42.9124 233.021 42.4121 233.37 42.0156C233.719 41.6097 234.224 41.2132 234.885 40.8262C234.055 40.4674 233.394 39.8916 232.903 39.0986C232.421 38.3057 232.181 37.3711 232.181 36.2949C232.181 35.1432 232.431 34.1662 232.931 33.3638C233.441 32.5519 234.177 31.9336 235.14 31.5088C236.112 31.084 237.292 30.8716 238.68 30.8716C238.973 30.8716 239.313 30.8905 239.7 30.9282C240.087 30.966 240.441 31.0085 240.762 31.0557C241.092 31.1029 241.314 31.1406 241.427 31.1689H246.95V33.3638L244.472 34.001C244.698 34.3503 244.868 34.7231 244.981 35.1196C245.095 35.5161 245.151 35.9362 245.151 36.3799C245.151 38.0791 244.557 39.4054 243.367 40.3589C242.187 41.3029 240.545 41.7749 238.439 41.7749C237.939 41.7466 237.467 41.7088 237.023 41.6616C236.806 41.8315 236.641 42.0109 236.528 42.1997C236.415 42.3885 236.358 42.5868 236.358 42.7944C236.358 43.0021 236.443 43.1768 236.613 43.3184C236.792 43.4505 237.056 43.5544 237.406 43.6299C237.764 43.696 238.208 43.729 238.737 43.729H241.427C243.164 43.729 244.486 44.1019 245.392 44.8477C246.308 45.5934 246.766 46.6885 246.766 48.1328C246.766 49.9831 245.992 51.418 244.443 52.4375C242.905 53.457 240.691 53.9668 237.802 53.9668ZM237.986 51.1489C239.015 51.1489 239.898 51.0498 240.634 50.8516C241.38 50.6628 241.951 50.389 242.348 50.0303C242.744 49.681 242.942 49.2609 242.942 48.77C242.942 48.3735 242.824 48.0573 242.588 47.8213C242.362 47.5947 242.013 47.4342 241.541 47.3398C241.078 47.2454 240.483 47.1982 239.756 47.1982H237.519C236.99 47.1982 236.514 47.2832 236.089 47.4531C235.674 47.623 235.343 47.859 235.098 48.1611C234.852 48.4727 234.729 48.8314 234.729 49.2373C234.729 49.832 235.013 50.2993 235.579 50.6392C236.155 50.979 236.957 51.1489 237.986 51.1489ZM238.68 39.1411C239.492 39.1411 240.087 38.891 240.464 38.3906C240.842 37.8903 241.031 37.2106 241.031 36.3516C241.031 35.3981 240.833 34.6854 240.436 34.2134C240.049 33.7319 239.464 33.4912 238.68 33.4912C237.887 33.4912 237.292 33.7319 236.896 34.2134C236.5 34.6854 236.301 35.3981 236.301 36.3516C236.301 37.2106 236.495 37.8903 236.882 38.3906C237.278 38.891 237.878 39.1411 238.68 39.1411Z" fill="#F0EADC"/>
</svg>
