<svg width="302" height="43" viewBox="0 0 302 43" fill="none" xmlns="http://www.w3.org/2000/svg">
<path d="M16.5668 32.67H0V1.97363H16.5668V7.30662H6.0994V14.0464H15.8388V19.3794H6.0994V27.295H16.5668V32.67ZM42.3024 9.19635V32.67H37.6984L36.8917 29.6675H36.5768C36.1046 30.4654 35.5144 31.1162 34.8061 31.6202C34.0977 32.1241 33.3172 32.495 32.4647 32.7329C31.6121 32.971 30.7266 33.0899 29.8084 33.0899C28.2344 33.0899 26.8637 32.796 25.6962 32.2081C24.5288 31.6062 23.6172 30.6754 22.9613 29.4156C22.3186 28.1558 21.9972 26.5181 21.9972 24.5025V9.19635H27.9982V22.9068C27.9982 24.5864 28.2803 25.8533 28.8443 26.707C29.4083 27.561 30.3068 27.9878 31.5399 27.9878C32.7598 27.9878 33.7173 27.6939 34.4125 27.106C35.1077 26.5041 35.593 25.6293 35.8685 24.4814C36.1571 23.3197 36.3013 21.906 36.3013 20.2403V9.19635H42.3024ZM60.876 8.75536C61.1782 8.75536 61.5252 8.77638 61.9192 8.81831C62.3256 8.84638 62.6535 8.8883 62.9031 8.94432L62.4498 14.9493C62.2539 14.8793 61.9718 14.8303 61.6036 14.8022C61.2499 14.7603 60.9421 14.7393 60.679 14.7393C59.9056 14.7393 59.1512 14.8443 58.4169 15.0543C57.6949 15.2641 57.0457 15.6071 56.4693 16.083C55.8917 16.5449 55.4328 17.1608 55.0914 17.9307C54.7634 18.6866 54.6 19.6174 54.6 20.7231V32.67H48.5982V9.19635H53.1438L54.0291 13.1435H54.3246C54.7567 12.3457 55.2951 11.6178 55.9376 10.9599C56.5935 10.2881 57.3345 9.75619 58.1606 9.36429C59 8.9583 59.9056 8.75536 60.876 8.75536ZM75.9678 8.75536C78.0005 8.75536 79.7511 9.17533 81.2208 10.0151C82.6893 10.841 83.8243 12.0447 84.6246 13.6264C85.425 15.2082 85.8246 17.1398 85.8246 19.4214V22.5289H71.6383C71.7043 24.3345 72.2091 25.7552 73.1538 26.791C74.1109 27.8129 75.4362 28.3237 77.1286 28.3237C78.5322 28.3237 79.8172 28.1698 80.9846 27.8618C82.1521 27.5539 83.352 27.092 84.5855 26.4762V31.4312C83.4964 32.0051 82.3558 32.425 81.1615 32.691C79.9806 32.9569 78.5445 33.0899 76.8532 33.0899C74.6493 33.0899 72.6949 32.656 70.9891 31.7881C69.2978 30.9203 67.9658 29.5975 66.9954 27.8199C66.0372 26.0422 65.5593 23.8026 65.5593 21.1012C65.5593 18.3576 65.9913 16.076 66.8577 14.2564C67.7363 12.4227 68.9564 11.051 70.5167 10.1412C72.0782 9.21725 73.8948 8.75536 75.9678 8.75536ZM76.007 13.3116C74.8396 13.3116 73.8691 13.7105 73.0945 14.5083C72.3334 15.3062 71.8946 16.5589 71.776 18.2666H80.1977C80.1843 17.3148 80.0209 16.4679 79.7052 15.7261C79.4041 14.9843 78.9452 14.3964 78.3285 13.9624C77.7252 13.5285 76.9506 13.3116 76.007 13.3116ZM96.7055 0V14.6133C96.7055 15.4951 96.673 16.377 96.607 17.2589C96.5409 18.1406 96.4693 19.0225 96.3909 19.9043H96.4693C96.8756 19.2885 97.2886 18.6795 97.7084 18.0777C98.1416 17.4758 98.6005 16.8949 99.0863 16.335L105.245 9.19635H112.013L103.277 19.3794L112.544 32.67H105.619L99.2833 23.1587L96.7055 25.3633V32.67H90.7048V0H96.7055ZM124.704 8.71344C127.655 8.71344 129.918 9.39929 131.492 10.771C133.065 12.1428 133.852 14.2283 133.852 17.0279V32.67H129.662L128.501 29.4785H128.343C127.714 30.3183 127.072 31.0043 126.416 31.5362C125.76 32.0681 125.005 32.46 124.152 32.712C123.301 32.9639 122.264 33.0899 121.044 33.0899C119.746 33.0899 118.578 32.8239 117.542 32.292C116.519 31.7602 115.712 30.9483 115.122 29.8564C114.532 28.7507 114.236 27.351 114.236 25.6572C114.236 23.1658 115.056 21.332 116.695 20.1562C118.335 18.9664 120.794 18.3087 124.074 18.1826L127.891 18.0566V17.0279C127.891 15.796 127.59 14.8933 126.986 14.3193C126.383 13.7454 125.544 13.4585 124.468 13.4585C123.405 13.4585 122.363 13.6195 121.339 13.9414C120.316 14.2633 119.293 14.6693 118.269 15.1591L116.282 10.8341C117.45 10.1762 118.755 9.65824 120.198 9.28032C121.654 8.9024 123.156 8.71344 124.704 8.71344ZM127.891 21.7939L125.569 21.8779C123.628 21.9339 122.277 22.3049 121.516 22.9908C120.769 23.6766 120.395 24.5795 120.395 25.6993C120.395 26.6791 120.663 27.3789 121.202 27.7989C121.739 28.2048 122.441 28.4077 123.306 28.4077C124.592 28.4077 125.675 28.0018 126.553 27.19C127.445 26.3781 127.891 25.2233 127.891 23.7256V21.7939ZM150.99 1.97363H159.943C163.773 1.97363 166.672 2.54753 168.639 3.69533C170.606 4.84307 171.59 6.8587 171.59 9.74221C171.59 10.9039 171.413 11.9537 171.06 12.8916C170.718 13.8295 170.22 14.5993 169.564 15.2012C168.908 15.8031 168.108 16.195 167.163 16.377V16.587C168.121 16.7968 168.987 17.1608 169.76 17.6787C170.535 18.1826 171.151 18.9245 171.61 19.9043C172.083 20.8701 172.319 22.1579 172.319 23.7676C172.319 25.6293 171.892 27.225 171.04 28.5547C170.187 29.8845 168.967 30.9062 167.379 31.6202C165.806 32.32 163.93 32.67 161.753 32.67H150.99V1.97363ZM157.089 14.1304H160.631C162.402 14.1304 163.629 13.8364 164.31 13.2485C164.993 12.6466 165.333 11.7648 165.333 10.603C165.333 9.42724 164.927 8.58742 164.114 8.08348C163.314 7.56557 162.041 7.30662 160.296 7.30662H157.089V14.1304ZM157.089 19.2954V27.295H161.064C162.901 27.295 164.179 26.917 164.901 26.1612C165.622 25.4053 165.982 24.3905 165.982 23.1168C165.982 22.3608 165.826 21.696 165.511 21.1221C165.196 20.5482 164.665 20.1003 163.917 19.7783C163.182 19.4564 162.166 19.2954 160.867 19.2954H157.089ZM186.662 8.75536C188.695 8.75536 190.446 9.17533 191.915 10.0151C193.385 10.841 194.52 12.0447 195.319 13.6264C196.119 15.2082 196.52 17.1398 196.52 19.4214V22.5289H182.333C182.398 24.3345 182.904 25.7552 183.848 26.791C184.806 27.8129 186.13 28.3237 187.823 28.3237C189.226 28.3237 190.512 28.1698 191.679 27.8618C192.846 27.5539 194.047 27.092 195.28 26.4762V31.4312C194.192 32.0051 193.05 32.425 191.857 32.691C190.676 32.9569 189.24 33.0899 187.547 33.0899C185.343 33.0899 183.389 32.656 181.684 31.7881C179.992 30.9203 178.661 29.5975 177.689 27.8199C176.732 26.0422 176.253 23.8026 176.253 21.1012C176.253 18.3576 176.687 16.076 177.552 14.2564C178.432 12.4227 179.65 11.051 181.212 10.1412C182.772 9.21725 184.589 8.75536 186.662 8.75536ZM186.701 13.3116C185.534 13.3116 184.563 13.7105 183.79 14.5083C183.029 15.3062 182.589 16.5589 182.471 18.2666H190.892C190.879 17.3148 190.715 16.4679 190.4 15.7261C190.098 14.9843 189.639 14.3964 189.023 13.9624C188.419 13.5285 187.646 13.3116 186.701 13.3116ZM210.411 8.71344C213.362 8.71344 215.624 9.39929 217.198 10.771C218.773 12.1428 219.56 14.2283 219.56 17.0279V32.67H215.369L214.207 29.4785H214.051C213.42 30.3183 212.778 31.0043 212.122 31.5362C211.466 32.0681 210.712 32.46 209.86 32.712C209.007 32.9639 207.97 33.0899 206.75 33.0899C205.452 33.0899 204.284 32.8239 203.248 32.292C202.225 31.7602 201.419 30.9483 200.828 29.8564C200.238 28.7507 199.943 27.351 199.943 25.6572C199.943 23.1658 200.763 21.332 202.403 20.1562C204.042 18.9664 206.502 18.3087 209.78 18.1826L213.597 18.0566V17.0279C213.597 15.796 213.296 14.8933 212.693 14.3193C212.089 13.7454 211.25 13.4585 210.174 13.4585C209.112 13.4585 208.069 13.6195 207.046 13.9414C206.023 14.2633 205 14.6693 203.977 15.1591L201.989 10.8341C203.156 10.1762 204.461 9.65824 205.904 9.28032C207.36 8.9024 208.862 8.71344 210.411 8.71344ZM213.597 21.7939L211.276 21.8779C209.335 21.9339 207.984 22.3049 207.223 22.9908C206.475 23.6766 206.101 24.5795 206.101 25.6993C206.101 26.6791 206.37 27.3789 206.908 27.7989C207.445 28.2048 208.147 28.4077 209.014 28.4077C210.299 28.4077 211.381 28.0018 212.26 27.19C213.152 26.3781 213.597 25.2233 213.597 23.7256V21.7939ZM238.035 8.75536C238.336 8.75536 238.685 8.77638 239.077 8.81831C239.484 8.84638 239.812 8.8883 240.061 8.94432L239.609 14.9493C239.412 14.8793 239.13 14.8303 238.763 14.8022C238.409 14.7603 238.1 14.7393 237.838 14.7393C237.064 14.7393 236.31 14.8443 235.575 15.0543C234.854 15.2641 234.205 15.6071 233.627 16.083C233.05 16.5449 232.591 17.1608 232.251 17.9307C231.923 18.6866 231.758 19.6174 231.758 20.7231V32.67H225.758V9.19635H230.302L231.187 13.1435H231.483C231.916 12.3457 232.453 11.6178 233.096 10.9599C233.752 10.2881 234.493 9.75619 235.32 9.36429C236.159 8.9583 237.064 8.75536 238.035 8.75536ZM250.057 9.19635V32.67H244.055V9.19635H250.057ZM247.066 0C247.958 0 248.725 0.223959 249.368 0.671876C250.011 1.10579 250.332 1.92465 250.332 3.12844C250.332 4.31823 250.011 5.14407 249.368 5.60596C248.725 6.05388 247.958 6.27784 247.066 6.27784C246.161 6.27784 245.387 6.05388 244.745 5.60596C244.114 5.14407 243.8 4.31823 243.8 3.12844C243.8 1.92465 244.114 1.10579 244.745 0.671876C245.387 0.223959 246.161 0 247.066 0ZM268.866 8.75536C271.214 8.75536 273.104 9.44121 274.533 10.813C275.962 12.1708 276.678 14.3543 276.678 17.3637V32.67H270.677V18.9595C270.677 17.2798 270.388 16.0131 269.811 15.1591C269.246 14.3054 268.354 13.8785 267.135 13.8785C265.299 13.8785 264.046 14.5433 263.377 15.8731C262.709 17.2028 262.374 19.1204 262.374 21.626V32.67H256.372V9.19635H260.957L261.764 12.1987H262.098C262.57 11.3868 263.154 10.7291 263.849 10.2251C264.558 9.72119 265.338 9.35031 266.191 9.11226C267.056 8.87433 267.948 8.75536 268.866 8.75536ZM289.29 43C286.22 43 283.873 42.4262 282.246 41.2783C280.632 40.1446 279.825 38.5489 279.825 36.4912C279.825 35.0775 280.239 33.8947 281.065 32.9429C281.891 31.991 283.105 31.3122 284.705 30.9062C284.089 30.6264 283.551 30.1714 283.091 29.5416C282.632 28.8977 282.403 28.2187 282.403 27.5049C282.403 26.6091 282.646 25.8672 283.132 25.2793C283.616 24.6774 284.318 24.0895 285.236 23.5156C284.082 22.9837 283.164 22.1299 282.482 20.9541C281.813 19.7783 281.478 18.3926 281.478 16.7968C281.478 15.0891 281.827 13.6405 282.522 12.4507C283.229 11.247 284.253 10.3301 285.591 9.70017C286.942 9.07033 288.582 8.75536 290.509 8.75536C290.917 8.75536 291.389 8.78343 291.926 8.83933C292.463 8.89535 292.956 8.9583 293.401 9.02829C293.861 9.09829 294.169 9.1543 294.327 9.19635H302V12.4507L298.557 13.3955C298.872 13.9135 299.108 14.4664 299.266 15.0543C299.422 15.6421 299.502 16.265 299.502 16.9229C299.502 19.4424 298.675 21.4091 297.022 22.8228C295.383 24.2225 293.1 24.9224 290.176 24.9224C289.479 24.8804 288.824 24.8244 288.208 24.7544C287.906 25.0064 287.676 25.2723 287.519 25.5523C287.362 25.8322 287.283 26.1262 287.283 26.4341C287.283 26.742 287.401 27.001 287.637 27.211C287.887 27.407 288.254 27.561 288.738 27.6729C289.238 27.7708 289.853 27.8199 290.589 27.8199H294.327C296.74 27.8199 298.576 28.3727 299.835 29.4785C301.108 30.5843 301.744 32.2081 301.744 34.3496C301.744 37.0931 300.669 39.2208 298.518 40.7325C296.38 42.2442 293.303 43 289.29 43ZM289.545 38.8218C290.975 38.8218 292.201 38.6748 293.225 38.3808C294.261 38.101 295.055 37.695 295.605 37.1631C296.156 36.6452 296.431 36.0223 296.431 35.2945C296.431 34.7066 296.268 34.2377 295.94 33.8877C295.626 33.5518 295.14 33.3139 294.484 33.1739C293.841 33.0339 293.015 32.9639 292.004 32.9639H288.896C288.162 32.9639 287.499 33.0899 286.909 33.3418C286.332 33.5937 285.873 33.9437 285.531 34.3916C285.19 34.8535 285.02 35.3854 285.02 35.9873C285.02 36.8692 285.414 37.5621 286.201 38.066C287.001 38.5699 288.116 38.8218 289.545 38.8218ZM290.509 21.0171C291.637 21.0171 292.463 20.6462 292.988 19.9043C293.513 19.1624 293.775 18.1547 293.775 16.8808C293.775 15.4672 293.5 14.4103 292.949 13.7105C292.412 12.9966 291.598 12.6397 290.509 12.6397C289.408 12.6397 288.582 12.9966 288.031 13.7105C287.479 14.4103 287.204 15.4672 287.204 16.8808C287.204 18.1547 287.472 19.1624 288.011 19.9043C288.561 20.6462 289.394 21.0171 290.509 21.0171Z" fill="#D9D9D9"/>
</svg>