<svg width="331" height="49" viewBox="0 0 331 49" fill="none" xmlns="http://www.w3.org/2000/svg">
<circle cx="22.5" cy="26" r="16.373" stroke="#D8D8D8" stroke-width="2"/>
<circle cx="22.4995" cy="25.9995" r="21.4995" stroke="#D8D8D8" stroke-width="2"/>
<circle cx="33.8914" cy="10.0505" r="2.56323" fill="#D8D8D8"/>
<circle cx="40.7253" cy="18.0251" r="2.56323" fill="#D8D8D8"/>
<circle cx="42.4363" cy="25.9998" r="2.56323" fill="#D8D8D8"/>
<circle cx="40.157" cy="35.1135" r="2.56323" fill="#D8D8D8"/>
<circle cx="33.8914" cy="41.9485" r="2.56323" fill="#D8D8D8"/>
<circle cx="22.4988" cy="45.9358" r="2.56323" fill="#D8D8D8"/>
<circle cx="11.6785" cy="42.5178" r="2.56323" fill="#D8D8D8"/>
<circle cx="4.84253" cy="35.1135" r="2.56323" fill="#D8D8D8"/>
<circle cx="3.13159" cy="25.9998" r="2.56323" fill="#D8D8D8"/>
<circle cx="4.27222" cy="18.0251" r="2.56323" fill="#D8D8D8"/>
<circle cx="11.6785" cy="9.48071" r="2.56323" fill="#D8D8D8"/>
<circle cx="22.4988" cy="6.63306" r="2.56323" fill="#D8D8D8"/>
<path d="M75.0352 38H60.2344V12.3008H75.0352V16.7656H65.6836V22.4082H74.3848V26.873H65.6836V33.5H75.0352V38ZM98.0273 18.3477V38H93.9141L93.1934 35.4863H92.9121C92.4902 36.1543 91.9629 36.6992 91.3301 37.1211C90.6973 37.543 90 37.8535 89.2383 38.0527C88.4766 38.252 87.6855 38.3516 86.8652 38.3516C85.459 38.3516 84.2344 38.1055 83.1914 37.6133C82.1484 37.1094 81.334 36.3301 80.748 35.2754C80.1738 34.2207 79.8867 32.8496 79.8867 31.1621V18.3477H85.248V29.8262C85.248 31.2324 85.5 32.293 86.0039 33.0078C86.5078 33.7227 87.3105 34.0801 88.4121 34.0801C89.502 34.0801 90.3574 33.834 90.9785 33.3418C91.5996 32.8379 92.0332 32.1055 92.2793 31.1445C92.5371 30.1719 92.666 28.9883 92.666 27.5938V18.3477H98.0273ZM114.621 17.9785C114.891 17.9785 115.201 17.9961 115.553 18.0312C115.916 18.0547 116.209 18.0898 116.432 18.1367L116.027 23.1641C115.852 23.1055 115.6 23.0645 115.271 23.041C114.955 23.0059 114.68 22.9883 114.445 22.9883C113.754 22.9883 113.08 23.0762 112.424 23.252C111.779 23.4277 111.199 23.7148 110.684 24.1133C110.168 24.5 109.758 25.0156 109.453 25.6602C109.16 26.293 109.014 27.0723 109.014 27.998V38H103.652V18.3477H107.713L108.504 21.6523H108.768C109.154 20.9844 109.635 20.375 110.209 19.8242C110.795 19.2617 111.457 18.8164 112.195 18.4883C112.945 18.1484 113.754 17.9785 114.621 17.9785ZM128.104 17.9785C129.92 17.9785 131.484 18.3301 132.797 19.0332C134.109 19.7246 135.123 20.7324 135.838 22.0566C136.553 23.3809 136.91 24.998 136.91 26.9082V29.5098H124.236C124.295 31.0215 124.746 32.2109 125.59 33.0781C126.445 33.9336 127.629 34.3613 129.141 34.3613C130.395 34.3613 131.543 34.2324 132.586 33.9746C133.629 33.7168 134.701 33.3301 135.803 32.8145V36.9629C134.83 37.4434 133.811 37.7949 132.744 38.0176C131.689 38.2402 130.406 38.3516 128.895 38.3516C126.926 38.3516 125.18 37.9883 123.656 37.2617C122.145 36.5352 120.955 35.4277 120.088 33.9395C119.232 32.4512 118.805 30.5762 118.805 28.3145C118.805 26.0176 119.191 24.1074 119.965 22.584C120.75 21.0488 121.84 19.9004 123.234 19.1387C124.629 18.3652 126.252 17.9785 128.104 17.9785ZM128.139 21.793C127.096 21.793 126.229 22.127 125.537 22.7949C124.857 23.4629 124.465 24.5117 124.359 25.9414H131.883C131.871 25.1445 131.725 24.4355 131.443 23.8145C131.174 23.1934 130.764 22.7012 130.213 22.3379C129.674 21.9746 128.982 21.793 128.139 21.793ZM146.631 10.6484V22.8828C146.631 23.6211 146.602 24.3594 146.543 25.0977C146.484 25.8359 146.42 26.5742 146.35 27.3125H146.42C146.783 26.7969 147.152 26.2871 147.527 25.7832C147.914 25.2793 148.324 24.793 148.758 24.3242L154.26 18.3477H160.307L152.502 26.873L160.781 38H154.594L148.934 30.0371L146.631 31.8828V38H141.27V10.6484H146.631ZM171.645 17.9434C174.281 17.9434 176.303 18.5176 177.709 19.666C179.115 20.8145 179.818 22.5605 179.818 24.9043V38H176.074L175.037 35.3281H174.896C174.334 36.0312 173.76 36.6055 173.174 37.0508C172.588 37.4961 171.914 37.8242 171.152 38.0352C170.391 38.2461 169.465 38.3516 168.375 38.3516C167.215 38.3516 166.172 38.1289 165.246 37.6836C164.332 37.2383 163.611 36.5586 163.084 35.6445C162.557 34.7188 162.293 33.5469 162.293 32.1289C162.293 30.043 163.025 28.5078 164.49 27.5234C165.955 26.5273 168.152 25.9766 171.082 25.8711L174.492 25.7656V24.9043C174.492 23.873 174.223 23.1172 173.684 22.6367C173.145 22.1562 172.395 21.916 171.434 21.916C170.484 21.916 169.553 22.0508 168.639 22.3203C167.725 22.5898 166.811 22.9297 165.896 23.3398L164.121 19.7188C165.164 19.168 166.33 18.7344 167.619 18.418C168.92 18.1016 170.262 17.9434 171.645 17.9434ZM174.492 28.8945L172.418 28.9648C170.684 29.0117 169.477 29.3223 168.797 29.8965C168.129 30.4707 167.795 31.2266 167.795 32.1641C167.795 32.9844 168.035 33.5703 168.516 33.9219C168.996 34.2617 169.623 34.4316 170.396 34.4316C171.545 34.4316 172.512 34.0918 173.297 33.4121C174.094 32.7324 174.492 31.7656 174.492 30.5117V28.8945ZM195.129 12.3008H203.127C206.549 12.3008 209.139 12.7812 210.896 13.7422C212.654 14.7031 213.533 16.3906 213.533 18.8047C213.533 19.7773 213.375 20.6562 213.059 21.4414C212.754 22.2266 212.309 22.8711 211.723 23.375C211.137 23.8789 210.422 24.207 209.578 24.3594V24.5352C210.434 24.7109 211.207 25.0156 211.898 25.4492C212.59 25.8711 213.141 26.4922 213.551 27.3125C213.973 28.1211 214.184 29.1992 214.184 30.5469C214.184 32.1055 213.803 33.4414 213.041 34.5547C212.279 35.668 211.189 36.5234 209.771 37.1211C208.365 37.707 206.689 38 204.744 38H195.129V12.3008ZM200.578 22.4785H203.742C205.324 22.4785 206.42 22.2324 207.029 21.7402C207.639 21.2363 207.943 20.498 207.943 19.5254C207.943 18.541 207.58 17.8379 206.854 17.416C206.139 16.9824 205.002 16.7656 203.443 16.7656H200.578V22.4785ZM200.578 26.8027V33.5H204.129C205.77 33.5 206.912 33.1836 207.557 32.5508C208.201 31.918 208.523 31.0684 208.523 30.002C208.523 29.3691 208.383 28.8125 208.102 28.332C207.82 27.8516 207.346 27.4766 206.678 27.207C206.021 26.9375 205.113 26.8027 203.953 26.8027H200.578ZM226.998 17.9785C228.814 17.9785 230.379 18.3301 231.691 19.0332C233.004 19.7246 234.018 20.7324 234.732 22.0566C235.447 23.3809 235.805 24.998 235.805 26.9082V29.5098H223.131C223.189 31.0215 223.641 32.2109 224.484 33.0781C225.34 33.9336 226.523 34.3613 228.035 34.3613C229.289 34.3613 230.438 34.2324 231.48 33.9746C232.523 33.7168 233.596 33.3301 234.697 32.8145V36.9629C233.725 37.4434 232.705 37.7949 231.639 38.0176C230.584 38.2402 229.301 38.3516 227.789 38.3516C225.82 38.3516 224.074 37.9883 222.551 37.2617C221.039 36.5352 219.85 35.4277 218.982 33.9395C218.127 32.4512 217.699 30.5762 217.699 28.3145C217.699 26.0176 218.086 24.1074 218.859 22.584C219.645 21.0488 220.734 19.9004 222.129 19.1387C223.523 18.3652 225.146 17.9785 226.998 17.9785ZM227.033 21.793C225.99 21.793 225.123 22.127 224.432 22.7949C223.752 23.4629 223.359 24.5117 223.254 25.9414H230.777C230.766 25.1445 230.619 24.4355 230.338 23.8145C230.068 23.1934 229.658 22.7012 229.107 22.3379C228.568 21.9746 227.877 21.793 227.033 21.793ZM248.215 17.9434C250.852 17.9434 252.873 18.5176 254.279 19.666C255.686 20.8145 256.389 22.5605 256.389 24.9043V38H252.645L251.607 35.3281H251.467C250.904 36.0312 250.33 36.6055 249.744 37.0508C249.158 37.4961 248.484 37.8242 247.723 38.0352C246.961 38.2461 246.035 38.3516 244.945 38.3516C243.785 38.3516 242.742 38.1289 241.816 37.6836C240.902 37.2383 240.182 36.5586 239.654 35.6445C239.127 34.7188 238.863 33.5469 238.863 32.1289C238.863 30.043 239.596 28.5078 241.061 27.5234C242.525 26.5273 244.723 25.9766 247.652 25.8711L251.062 25.7656V24.9043C251.062 23.873 250.793 23.1172 250.254 22.6367C249.715 22.1562 248.965 21.916 248.004 21.916C247.055 21.916 246.123 22.0508 245.209 22.3203C244.295 22.5898 243.381 22.9297 242.467 23.3398L240.691 19.7188C241.734 19.168 242.9 18.7344 244.189 18.418C245.49 18.1016 246.832 17.9434 248.215 17.9434ZM251.062 28.8945L248.988 28.9648C247.254 29.0117 246.047 29.3223 245.367 29.8965C244.699 30.4707 244.365 31.2266 244.365 32.1641C244.365 32.9844 244.605 33.5703 245.086 33.9219C245.566 34.2617 246.193 34.4316 246.967 34.4316C248.115 34.4316 249.082 34.0918 249.867 33.4121C250.664 32.7324 251.062 31.7656 251.062 30.5117V28.8945ZM272.895 17.9785C273.164 17.9785 273.475 17.9961 273.826 18.0312C274.189 18.0547 274.482 18.0898 274.705 18.1367L274.301 23.1641C274.125 23.1055 273.873 23.0645 273.545 23.041C273.229 23.0059 272.953 22.9883 272.719 22.9883C272.027 22.9883 271.354 23.0762 270.697 23.252C270.053 23.4277 269.473 23.7148 268.957 24.1133C268.441 24.5 268.031 25.0156 267.727 25.6602C267.434 26.293 267.287 27.0723 267.287 27.998V38H261.926V18.3477H265.986L266.777 21.6523H267.041C267.428 20.9844 267.908 20.375 268.482 19.8242C269.068 19.2617 269.73 18.8164 270.469 18.4883C271.219 18.1484 272.027 17.9785 272.895 17.9785ZM283.635 18.3477V38H278.273V18.3477H283.635ZM280.963 10.6484C281.76 10.6484 282.445 10.8359 283.02 11.2109C283.594 11.5742 283.881 12.2598 283.881 13.2676C283.881 14.2637 283.594 14.9551 283.02 15.3418C282.445 15.7168 281.76 15.9043 280.963 15.9043C280.154 15.9043 279.463 15.7168 278.889 15.3418C278.326 14.9551 278.045 14.2637 278.045 13.2676C278.045 12.2598 278.326 11.5742 278.889 11.2109C279.463 10.8359 280.154 10.6484 280.963 10.6484ZM300.439 17.9785C302.537 17.9785 304.225 18.5527 305.502 19.7012C306.779 20.8379 307.418 22.666 307.418 25.1855V38H302.057V26.5215C302.057 25.1152 301.799 24.0547 301.283 23.3398C300.779 22.625 299.982 22.2676 298.893 22.2676C297.252 22.2676 296.133 22.8242 295.535 23.9375C294.938 25.0508 294.639 26.6562 294.639 28.7539V38H289.277V18.3477H293.373L294.094 20.8613H294.393C294.814 20.1816 295.336 19.6309 295.957 19.209C296.59 18.7871 297.287 18.4766 298.049 18.2773C298.822 18.0781 299.619 17.9785 300.439 17.9785ZM318.686 46.6484C315.943 46.6484 313.846 46.168 312.393 45.207C310.951 44.2578 310.23 42.9219 310.23 41.1992C310.23 40.0156 310.6 39.0254 311.338 38.2285C312.076 37.4316 313.16 36.8633 314.59 36.5234C314.039 36.2891 313.559 35.9082 313.148 35.3809C312.738 34.8418 312.533 34.2734 312.533 33.6758C312.533 32.9258 312.75 32.3047 313.184 31.8125C313.617 31.3086 314.244 30.8164 315.064 30.3359C314.033 29.8906 313.213 29.1758 312.604 28.1914C312.006 27.207 311.707 26.0469 311.707 24.7109C311.707 23.2812 312.018 22.0684 312.639 21.0723C313.271 20.0645 314.186 19.2969 315.381 18.7695C316.588 18.2422 318.053 17.9785 319.775 17.9785C320.139 17.9785 320.561 18.002 321.041 18.0488C321.521 18.0957 321.961 18.1484 322.359 18.207C322.77 18.2656 323.045 18.3125 323.186 18.3477H330.041V21.0723L326.965 21.8633C327.246 22.2969 327.457 22.7598 327.598 23.252C327.738 23.7441 327.809 24.2656 327.809 24.8164C327.809 26.9258 327.07 28.5723 325.594 29.7559C324.129 30.9277 322.09 31.5137 319.477 31.5137C318.855 31.4785 318.27 31.4316 317.719 31.373C317.449 31.584 317.244 31.8066 317.104 32.041C316.963 32.2754 316.893 32.5215 316.893 32.7793C316.893 33.0371 316.998 33.2539 317.209 33.4297C317.432 33.5938 317.76 33.7227 318.193 33.8164C318.639 33.8984 319.189 33.9395 319.846 33.9395H323.186C325.342 33.9395 326.982 34.4023 328.107 35.3281C329.244 36.2539 329.812 37.6133 329.812 39.4062C329.812 41.7031 328.852 43.4844 326.93 44.75C325.02 46.0156 322.271 46.6484 318.686 46.6484ZM318.914 43.1504C320.191 43.1504 321.287 43.0273 322.201 42.7812C323.127 42.5469 323.836 42.207 324.328 41.7617C324.82 41.3281 325.066 40.8066 325.066 40.1973C325.066 39.7051 324.92 39.3125 324.627 39.0195C324.346 38.7383 323.912 38.5391 323.326 38.4219C322.752 38.3047 322.014 38.2461 321.111 38.2461H318.334C317.678 38.2461 317.086 38.3516 316.559 38.5625C316.043 38.7734 315.633 39.0664 315.328 39.4414C315.023 39.8281 314.871 40.2734 314.871 40.7773C314.871 41.5156 315.223 42.0957 315.926 42.5176C316.641 42.9395 317.637 43.1504 318.914 43.1504ZM319.775 28.2441C320.783 28.2441 321.521 27.9336 321.99 27.3125C322.459 26.6914 322.693 25.8477 322.693 24.7812C322.693 23.5977 322.447 22.7129 321.955 22.127C321.475 21.5293 320.748 21.2305 319.775 21.2305C318.791 21.2305 318.053 21.5293 317.561 22.127C317.068 22.7129 316.822 23.5977 316.822 24.7812C316.822 25.8477 317.062 26.6914 317.543 27.3125C318.035 27.9336 318.779 28.2441 319.775 28.2441Z" fill="#F3F3F3"/>
</svg>
