<svg width="286" height="78" viewBox="0 0 286 78" fill="none" xmlns="http://www.w3.org/2000/svg">
<path d="M56.7475 32.904C60.9289 32.904 64.2569 34.2693 66.7315 37C69.2489 39.688 70.5075 43.4 70.5075 48.136V69H59.6275V49.608C59.6275 47.2187 59.0089 45.3627 57.7715 44.04C56.5342 42.7173 54.8702 42.056 52.7795 42.056C50.6889 42.056 49.0249 42.7173 47.7875 44.04C46.5502 45.3627 45.9315 47.2187 45.9315 49.608V69H34.9875V33.288H45.9315V38.024C47.0409 36.4453 48.5342 35.208 50.4115 34.312C52.2889 33.3733 54.4009 32.904 56.7475 32.904ZM89.0565 39.24C90.3365 37.2773 91.9365 35.7413 93.8565 34.632C95.7765 33.48 97.9099 32.904 100.257 32.904V44.488H97.2485C94.5179 44.488 92.4699 45.0853 91.1045 46.28C89.7392 47.432 89.0565 49.48 89.0565 52.424V69H78.1125V33.288H89.0565V39.24ZM139.152 50.568C139.152 51.592 139.088 52.6587 138.96 53.768H114.192C114.362 55.9867 115.066 57.6933 116.304 58.888C117.584 60.04 119.141 60.616 120.976 60.616C123.706 60.616 125.605 59.464 126.672 57.16H138.32C137.722 59.5067 136.634 61.6187 135.056 63.496C133.52 65.3733 131.578 66.8453 129.232 67.912C126.885 68.9787 124.261 69.512 121.36 69.512C117.861 69.512 114.746 68.7653 112.016 67.272C109.285 65.7787 107.152 63.6453 105.616 60.872C104.08 58.0987 103.312 54.856 103.312 51.144C103.312 47.432 104.058 44.1893 105.552 41.416C107.088 38.6427 109.221 36.5093 111.952 35.016C114.682 33.5227 117.818 32.776 121.36 32.776C124.816 32.776 127.888 33.5013 130.576 34.952C133.264 36.4027 135.354 38.472 136.848 41.16C138.384 43.848 139.152 46.984 139.152 50.568ZM127.952 47.688C127.952 45.8107 127.312 44.3173 126.032 43.208C124.752 42.0987 123.152 41.544 121.232 41.544C119.397 41.544 117.84 42.0773 116.56 43.144C115.322 44.2107 114.554 45.7253 114.256 47.688H127.952ZM142.749 51.08C142.749 47.4107 143.432 44.1893 144.797 41.416C146.205 38.6427 148.104 36.5093 150.493 35.016C152.882 33.5227 155.549 32.776 158.493 32.776C161.01 32.776 163.208 33.288 165.085 34.312C167.005 35.336 168.477 36.68 169.501 38.344V33.288H180.445V69H169.501V63.944C168.434 65.608 166.941 66.952 165.021 67.976C163.144 69 160.946 69.512 158.429 69.512C155.528 69.512 152.882 68.7653 150.493 67.272C148.104 65.736 146.205 63.5813 144.797 60.808C143.432 57.992 142.749 54.7493 142.749 51.08ZM169.501 51.144C169.501 48.4133 168.733 46.2587 167.197 44.68C165.704 43.1013 163.869 42.312 161.693 42.312C159.517 42.312 157.661 43.1013 156.125 44.68C154.632 46.216 153.885 48.3493 153.885 51.08C153.885 53.8107 154.632 55.9867 156.125 57.608C157.661 59.1867 159.517 59.976 161.693 59.976C163.869 59.976 165.704 59.1867 167.197 57.608C168.733 56.0293 169.501 53.8747 169.501 51.144ZM186.187 51.144C186.187 47.432 186.933 44.1893 188.427 41.416C189.963 38.6427 192.075 36.5093 194.763 35.016C197.493 33.5227 200.608 32.776 204.107 32.776C208.587 32.776 212.32 33.9493 215.307 36.296C218.336 38.6427 220.32 41.9493 221.259 46.216H209.611C208.629 43.4853 206.731 42.12 203.915 42.12C201.909 42.12 200.309 42.9093 199.115 44.488C197.92 46.024 197.323 48.2427 197.323 51.144C197.323 54.0453 197.92 56.2853 199.115 57.864C200.309 59.4 201.909 60.168 203.915 60.168C206.731 60.168 208.629 58.8027 209.611 56.072H221.259C220.32 60.2533 218.336 63.5387 215.307 65.928C212.277 68.3173 208.544 69.512 204.107 69.512C200.608 69.512 197.493 68.7653 194.763 67.272C192.075 65.7787 189.963 63.6453 188.427 60.872C186.933 58.0987 186.187 54.856 186.187 51.144ZM249.065 32.904C253.161 32.904 256.446 34.2693 258.921 37C261.395 39.688 262.633 43.4 262.633 48.136V69H251.753V49.608C251.753 47.2187 251.134 45.3627 249.897 44.04C248.659 42.7173 246.995 42.056 244.905 42.056C242.814 42.056 241.15 42.7173 239.913 44.04C238.675 45.3627 238.057 47.2187 238.057 49.608V69H227.113V21.64H238.057V38.088C239.166 36.5093 240.681 35.2507 242.601 34.312C244.521 33.3733 246.675 32.904 249.065 32.904Z" fill="#F46300"/>
<circle cx="23" cy="26" r="4" fill="#F46300"/>
<circle cx="23" cy="15" r="4" fill="#F46300" fill-opacity="0.5"/>
<circle cx="23" cy="4" r="4" fill="#F46300" fill-opacity="0.25"/>
<path d="M18 69V33L18.9099 33.6551C21.3529 35.4141 24.6471 35.4141 27.0901 33.6551L28 33V69H18Z" fill="#F46300"/>
</svg>
