<svg width="248" height="71" viewBox="0 0 248 71" fill="none" xmlns="http://www.w3.org/2000/svg">
<path d="M37.728 32.904C41.9093 32.904 45.2373 34.2693 47.712 37C50.2293 39.688 51.488 43.4 51.488 48.136V69H40.608V49.608C40.608 47.2187 39.9893 45.3627 38.752 44.04C37.5147 42.7173 35.8507 42.056 33.76 42.056C31.6693 42.056 30.0053 42.7173 28.768 44.04C27.5307 45.3627 26.912 47.2187 26.912 49.608V69H15.968V33.288H26.912V38.024C28.0213 36.4453 29.5147 35.208 31.392 34.312C33.2693 33.3733 35.3813 32.904 37.728 32.904ZM70.037 39.24C71.317 37.2773 72.917 35.7413 74.837 34.632C76.757 33.48 78.8903 32.904 81.237 32.904V44.488H78.229C75.4983 44.488 73.4503 45.0853 72.085 46.28C70.7197 47.432 70.037 49.48 70.037 52.424V69H59.093V33.288H70.037V39.24ZM120.132 50.568C120.132 51.592 120.068 52.6587 119.94 53.768H95.172C95.3427 55.9867 96.0467 57.6933 97.284 58.888C98.564 60.04 100.121 60.616 101.956 60.616C104.687 60.616 106.585 59.464 107.652 57.16H119.3C118.703 59.5067 117.615 61.6187 116.036 63.496C114.5 65.3733 112.559 66.8453 110.212 67.912C107.865 68.9787 105.241 69.512 102.34 69.512C98.8413 69.512 95.7267 68.7653 92.996 67.272C90.2653 65.7787 88.132 63.6453 86.596 60.872C85.06 58.0987 84.292 54.856 84.292 51.144C84.292 47.432 85.0387 44.1893 86.532 41.416C88.068 38.6427 90.2013 36.5093 92.932 35.016C95.6627 33.5227 98.7987 32.776 102.34 32.776C105.796 32.776 108.868 33.5013 111.556 34.952C114.244 36.4027 116.335 38.472 117.828 41.16C119.364 43.848 120.132 46.984 120.132 50.568ZM108.932 47.688C108.932 45.8107 108.292 44.3173 107.012 43.208C105.732 42.0987 104.132 41.544 102.212 41.544C100.377 41.544 98.82 42.0773 97.54 43.144C96.3027 44.2107 95.5347 45.7253 95.236 47.688H108.932ZM123.73 51.08C123.73 47.4107 124.412 44.1893 125.778 41.416C127.186 38.6427 129.084 36.5093 131.474 35.016C133.863 33.5227 136.53 32.776 139.474 32.776C141.991 32.776 144.188 33.288 146.066 34.312C147.986 35.336 149.458 36.68 150.482 38.344V33.288H161.426V69H150.482V63.944C149.415 65.608 147.922 66.952 146.002 67.976C144.124 69 141.927 69.512 139.41 69.512C136.508 69.512 133.863 68.7653 131.474 67.272C129.084 65.736 127.186 63.5813 125.778 60.808C124.412 57.992 123.73 54.7493 123.73 51.08ZM150.482 51.144C150.482 48.4133 149.714 46.2587 148.178 44.68C146.684 43.1013 144.85 42.312 142.674 42.312C140.498 42.312 138.642 43.1013 137.106 44.68C135.612 46.216 134.866 48.3493 134.866 51.08C134.866 53.8107 135.612 55.9867 137.106 57.608C138.642 59.1867 140.498 59.976 142.674 59.976C144.85 59.976 146.684 59.1867 148.178 57.608C149.714 56.0293 150.482 53.8747 150.482 51.144ZM167.167 51.144C167.167 47.432 167.914 44.1893 169.407 41.416C170.943 38.6427 173.055 36.5093 175.743 35.016C178.474 33.5227 181.588 32.776 185.087 32.776C189.567 32.776 193.3 33.9493 196.287 36.296C199.316 38.6427 201.3 41.9493 202.239 46.216H190.591C189.61 43.4853 187.711 42.12 184.895 42.12C182.89 42.12 181.29 42.9093 180.095 44.488C178.9 46.024 178.303 48.2427 178.303 51.144C178.303 54.0453 178.9 56.2853 180.095 57.864C181.29 59.4 182.89 60.168 184.895 60.168C187.711 60.168 189.61 58.8027 190.591 56.072H202.239C201.3 60.2533 199.316 63.5387 196.287 65.928C193.258 68.3173 189.524 69.512 185.087 69.512C181.588 69.512 178.474 68.7653 175.743 67.272C173.055 65.7787 170.943 63.6453 169.407 60.872C167.914 58.0987 167.167 54.856 167.167 51.144ZM230.045 32.904C234.141 32.904 237.426 34.2693 239.901 37C242.376 39.688 243.613 43.4 243.613 48.136V69H232.733V49.608C232.733 47.2187 232.114 45.3627 230.877 44.04C229.64 42.7173 227.976 42.056 225.885 42.056C223.794 42.056 222.13 42.7173 220.893 44.04C219.656 45.3627 219.037 47.2187 219.037 49.608V69H208.093V21.64H219.037V38.088C220.146 36.5093 221.661 35.2507 223.581 34.312C225.501 33.3733 227.656 32.904 230.045 32.904Z" fill="#F46300"/>
<circle cx="5" cy="26" r="4" fill="#F46300"/>
<circle cx="5" cy="15" r="4" fill="#F46300" fill-opacity="0.5"/>
<circle cx="5" cy="4" r="4" fill="#F46300" fill-opacity="0.25"/>
<path d="M0 69V33L0.909866 33.6551C3.35294 35.4141 6.64706 35.4141 9.09013 33.6551L10 33V69H0Z" fill="#F46300"/>
</svg>