<svg width="254" height="71" viewBox="0 0 254 71" fill="none" xmlns="http://www.w3.org/2000/svg">
<g clip-path="url(#clip0_186_837)">
<path d="M50.8477 34.8352C50.8477 27.3825 57.1192 21.1719 64.645 21.1719C72.1709 21.1719 78.4424 27.3825 78.4424 34.8352C78.4424 42.2879 72.1709 48.4986 64.645 48.4986C57.1192 48.4986 50.8477 42.495 50.8477 34.8352ZM53.7744 34.8352C53.7744 40.6318 58.7916 45.3933 64.8541 45.3933C70.9165 45.3933 75.5157 40.4248 75.5157 34.6282C75.5157 28.8316 70.7075 24.0702 64.8541 24.0702C58.7916 24.0702 53.9834 28.8316 53.7744 34.8352Z" fill="#F3F3F3"/>
<path d="M89.3108 39.3896L95.5823 48.0845H91.8194L85.966 39.8037H85.3388V48.0845H82.4121V27.7965H85.966C88.0565 27.5895 90.147 28.2105 91.8194 29.2456C93.0737 30.2807 93.9099 31.9369 93.9099 33.5931C93.9099 34.8352 93.4918 36.2843 92.6556 37.3194C92.0285 38.3545 90.7741 39.1826 89.3108 39.3896ZM85.5479 37.1124H86.5931C89.5198 37.1124 90.9832 36.0773 90.9832 33.8001C90.9832 31.5229 89.5198 30.6948 86.8022 30.6948H85.7569L85.5479 37.1124Z" fill="#F3F3F3"/>
<path d="M109.8 30.6952H101.647V35.6637H109.591V38.5619H101.647V45.3936H109.8V48.2919H98.5117V28.0039H109.8V30.6952Z" fill="#F3F3F3"/>
<path d="M124.015 37.5268H132.377V38.1479C132.377 39.597 132.168 40.8391 131.75 42.2883C131.332 43.3234 130.914 44.3585 130.287 45.1866C128.405 47.2568 125.897 48.4989 122.97 48.2919C120.252 48.2919 117.535 47.2568 115.653 45.1866C113.772 43.3234 112.518 40.6321 112.518 37.7338C112.518 31.9372 117.326 27.1758 123.179 27.1758C123.179 27.1758 123.179 27.1758 123.388 27.1758C124.852 27.1758 126.524 27.5898 127.987 28.2109C129.451 29.039 130.914 30.0741 131.959 31.3162L129.66 33.3864C128.196 31.3162 126.106 30.0741 123.597 30.0741C121.507 30.0741 119.416 30.6951 117.953 32.3513C116.49 33.8004 115.862 35.8706 115.862 37.7338C115.862 39.804 116.699 41.8742 118.371 43.3234C119.625 44.5655 121.507 45.3936 123.388 45.3936C124.852 45.3936 126.524 44.9795 127.569 43.9444C128.824 43.1163 129.451 41.6672 129.66 40.2181H124.224V37.5268H124.015Z" fill="#F3F3F3"/>
<path d="M135.302 37.7338C135.302 35.0426 136.347 32.3513 138.438 30.2811C140.528 28.2109 143.246 27.1758 145.963 27.1758C151.817 27.1758 156.625 31.9372 156.625 37.7338C156.625 40.6321 155.58 43.3234 153.489 45.1865C149.517 49.1199 143.037 49.327 138.856 45.6006C136.347 43.7374 135.093 40.8391 135.302 37.7338ZM138.438 37.7338C138.438 39.804 139.274 41.8742 140.737 43.3234C143.664 46.2216 148.472 46.2216 151.399 43.3234C152.653 41.8742 153.489 40.011 153.489 37.9408C153.489 35.8706 152.862 34.0075 151.399 32.5583C149.935 31.1092 148.054 30.2811 145.963 30.2811C143.873 30.2811 141.991 31.1092 140.528 32.5583C139.065 33.8004 138.438 35.8706 138.438 37.7338Z" fill="#F3F3F3"/>
<path d="M160.182 48.0848V26.3477L175.233 41.8742V27.7968H178.369V49.3269L163.317 33.8004V48.0848H160.182Z" fill="#F3F3F3"/>
<path d="M183.387 46.6357C183.387 46.2216 183.596 45.6006 184.014 45.3935C184.641 44.7725 185.895 44.7725 186.522 45.3935C186.941 45.8076 187.15 46.2216 187.15 46.6357C187.15 47.0497 186.941 47.6708 186.522 47.8778C186.104 48.2918 185.686 48.2918 185.059 48.2918C184.223 48.2918 183.387 47.6708 183.387 46.6357Z" fill="#F3F3F3"/>
<path d="M201.994 37.5268H210.356V38.1479C210.356 39.597 210.147 40.8391 209.729 42.2883C209.311 43.3234 208.684 44.3585 207.847 45.3936C205.966 47.4638 203.457 48.7059 200.531 48.4989C197.813 48.4989 195.095 47.4638 193.214 45.3936C191.123 43.5304 190.078 40.8391 190.078 37.9408C190.078 32.1443 194.886 27.3828 200.74 27.3828C200.74 27.3828 200.74 27.3828 200.949 27.3828C202.412 27.3828 204.085 27.7969 205.548 28.4179C207.011 29.246 208.475 30.2811 209.52 31.5232L207.429 33.5934C205.966 31.5232 203.666 30.2811 201.367 30.2811C199.276 30.2811 197.395 31.1092 195.932 32.5583C194.468 34.0075 193.632 36.0777 193.632 37.9408C193.632 40.0111 194.468 42.0813 196.141 43.5304C197.395 44.7725 199.276 45.6006 201.158 45.6006C202.621 45.6006 204.294 45.1866 205.339 44.1515C206.593 43.3234 207.22 41.8742 207.429 40.4251H202.203L201.994 37.5268Z" fill="#F3F3F3"/>
<path d="M213.072 37.7338C213.072 35.0426 214.118 32.3513 216.208 30.2811C218.299 28.2109 221.016 27.1758 223.734 27.1758C229.587 27.1758 234.395 31.9372 234.395 37.7338C234.395 40.6321 233.35 43.3234 231.26 45.1865C227.288 49.1199 220.807 49.327 216.417 45.6006C214.327 43.7374 213.072 40.8391 213.072 37.7338ZM216.208 37.7338C216.208 39.804 217.044 41.8742 218.508 43.3234C219.971 44.7725 221.852 45.3936 223.734 45.3936C225.824 45.3936 227.706 44.5655 229.169 43.1163C230.633 41.6672 231.469 39.804 231.469 37.7338C231.469 35.6636 230.842 33.8004 229.378 32.3513C226.452 29.453 221.643 29.453 218.508 32.3513C217.044 33.8004 216.208 35.6636 216.208 37.7338Z" fill="#F3F3F3"/>
<path d="M238.368 27.7969L244.013 41.8743L249.866 27.7969H253.211L244.013 49.741L235.023 27.7969H238.368Z" fill="#F3F3F3"/>
<path d="M37.4687 58.8495C37.2596 58.6424 35.5872 58.8495 34.542 58.6424C33.2877 58.4354 32.8696 57.6073 31.4062 57.4003C30.779 57.4003 30.1519 57.8144 30.1519 57.8144L29.7338 56.5722C29.7338 56.5722 30.57 56.1582 30.3609 55.5371C30.1519 54.9161 29.7338 54.9161 29.1066 54.9161C28.6885 54.9161 27.2252 55.5371 25.1347 55.3301C23.2532 55.1231 20.7446 53.881 20.7446 53.881C20.7446 53.881 20.7446 52.8459 20.9537 52.2248C21.1627 51.6038 21.5808 51.3967 21.5808 51.3967C21.5808 51.3967 22.208 53.0529 22.417 53.4669C22.8351 54.088 23.0442 53.0529 23.0442 53.0529C23.0442 53.0529 23.4623 53.881 23.8804 54.088C24.2985 54.295 24.7166 53.4669 25.5528 53.0529C26.1799 52.8459 27.0161 52.8459 27.0161 52.8459L27.6433 51.1897C27.6433 51.1897 29.5247 50.9827 30.1519 49.5336C30.779 48.0844 30.57 46.2212 30.57 46.2212C30.57 46.2212 31.4062 46.4282 31.4062 46.2212C31.4062 46.0142 30.57 44.9791 29.1066 44.358C30.1519 43.944 31.1971 43.53 31.1971 43.3229C31.1971 43.1159 30.3609 42.7019 30.3609 42.7019C30.3609 42.7019 33.7058 42.0808 33.7058 41.6668C33.7058 41.2527 32.8696 41.6668 32.0333 41.4598C31.1971 41.4598 30.3609 40.8387 30.3609 40.8387C30.3609 40.8387 29.5247 41.4598 28.6885 41.4598C27.8523 41.4598 24.2985 40.8387 24.2985 40.8387C24.2985 40.8387 25.7618 40.2176 26.1799 39.8036L27.4342 38.9755H26.1799C25.9709 38.5615 25.5528 38.3545 24.7166 38.3545C23.8804 38.3545 23.6713 37.3194 23.2532 37.3194C22.8351 37.3194 22.8351 38.3545 22.8351 38.3545C22.8351 38.3545 21.7899 37.7334 20.7446 37.9404C21.1627 37.3194 22.8351 37.1123 22.8351 36.4913C22.8351 36.2842 21.5808 35.4562 21.5808 35.4562C21.5808 35.4562 24.2985 35.4562 24.2985 35.0421C24.2985 34.6281 23.0442 34.4211 23.0442 34.4211C23.0442 34.4211 23.4623 34.007 24.5075 34.007C25.3437 34.007 26.1799 34.6281 26.8071 34.6281C27.4342 34.6281 27.8523 34.4211 27.8523 34.4211L27.2252 33.1789C27.2252 33.1789 30.1519 34.6281 30.779 33.593C30.9881 33.1789 30.779 32.7649 30.779 32.7649C30.779 32.7649 31.4062 32.9719 31.6152 32.5579C31.8243 32.1438 30.9881 31.3158 29.9428 30.6947C29.1066 30.0736 27.4342 30.0736 27.0161 29.4526C28.2704 29.6596 28.0614 28.8315 28.8976 28.8315C29.7338 28.6245 30.3609 29.4526 31.1971 29.8666C32.4515 30.0736 33.4967 30.2807 33.7058 29.8666C33.9148 29.4526 33.0786 29.4526 32.8696 28.8315C32.2424 28.2105 32.2424 27.5894 31.8243 27.1754C31.4062 26.7613 30.779 26.3473 30.779 26.3473C30.779 26.3473 32.6605 25.9332 32.6605 25.3122C32.6605 25.1052 29.1066 24.6911 26.389 24.0701C24.5075 23.863 21.9989 23.449 21.3718 23.242C21.1627 23.242 21.1627 23.242 20.9537 23.035C21.5808 22.6209 22.208 22.2069 22.208 21.9998C22.208 21.7928 20.7446 22.2069 20.3265 22.2069C20.3265 21.9998 20.3265 21.9998 20.3265 21.9998C20.3265 21.9998 20.1174 20.9647 22.8351 21.3788C24.2985 21.5858 25.7618 23.242 26.389 23.035C26.8071 22.8279 26.389 22.4139 26.389 22.4139C26.389 22.4139 27.2252 22.6209 27.2252 22.4139C27.4342 22.2069 26.389 20.5507 25.7618 20.1367C26.389 19.9296 26.1799 19.5156 25.7618 19.3086C25.3437 19.3086 23.8804 18.4805 23.2532 18.2735H20.9537C20.9537 18.2735 23.6713 17.8594 24.0894 17.6524C24.5075 17.4454 24.9256 17.2384 24.9256 17.0314C24.9256 16.6173 23.8804 16.4103 22.6261 16.2033C21.3718 15.9963 19.6993 16.2033 19.6993 16.2033C19.6993 16.2033 19.6993 15.7892 19.6993 14.7541C19.6993 14.1331 21.1627 12.6839 20.9537 12.2699C20.7446 11.8559 19.6993 12.2699 19.6993 12.2699C19.6993 12.2699 19.6993 11.2348 19.6993 10.8208C19.4903 9.99267 20.3265 9.37161 20.3265 8.95757C20.3265 8.54353 20.3265 8.12949 19.9084 8.12949C19.6993 7.92247 19.2812 8.33651 19.2812 8.33651C19.2812 8.33651 19.0722 7.92247 19.4903 7.50843C20.1174 7.09439 21.3718 6.47333 21.3718 6.26631C21.3718 5.85227 19.6993 5.64525 19.2812 4.81716C18.8631 3.78206 18.8631 1.71186 18.8631 0.676758C18.8631 2.1259 18.445 5.43822 18.236 6.47333C18.236 7.09439 16.9817 7.30141 16.9817 7.92247C16.9817 8.54353 17.6088 8.75055 17.6088 8.75055C17.6088 8.75055 15.7274 8.33651 15.1002 8.75055C15.1002 8.75055 18.236 9.78565 18.236 11.6488C17.1907 11.2348 16.3545 11.4418 16.3545 11.6488C16.3545 11.8559 17.1907 12.0629 17.3998 12.6839C16.7726 12.4769 15.7274 12.2699 14.8912 12.2699C14.055 12.2699 12.8007 12.4769 12.8007 12.4769C12.8007 12.4769 13.8459 13.512 15.5183 13.305C17.6088 13.098 18.236 13.9261 18.236 13.9261V15.7892C18.236 15.7892 16.1455 16.4103 15.7274 16.4103C15.3093 16.4103 14.8912 16.8243 14.8912 16.8243C14.8912 16.8243 13.6369 16.8243 12.5916 17.2384C11.5464 17.6524 11.3373 18.2735 11.3373 18.2735C11.3373 18.2735 12.8007 18.8945 13.8459 19.1016C15.9364 19.3086 18.0269 19.3086 18.0269 19.3086C18.0269 19.3086 16.7726 19.9296 14.6821 19.7226C15.3093 20.1367 15.1002 20.7577 15.1002 20.7577C15.1002 20.7577 13.8459 20.3437 13.0097 20.7577C13.0097 20.7577 13.8459 20.9647 13.8459 21.5858C12.1735 21.1718 12.1735 19.9296 11.7554 19.7226C11.3373 19.5156 10.9192 19.7226 10.7102 19.9296C10.7102 20.3437 10.9192 20.7577 10.9192 20.7577C10.083 20.3437 9.2468 20.7577 9.2468 20.7577L10.083 21.9998C10.083 21.9998 8.20155 21.7928 7.57439 21.9998C6.94724 22.2069 6.73819 22.6209 6.73819 22.8279C6.73819 22.8279 11.5464 24.6911 13.8459 23.863C15.1002 23.449 17.8179 22.4139 17.8179 22.4139V25.5192C17.8179 25.5192 16.3545 25.9332 14.6821 25.5192C13.6369 25.3122 12.3826 24.6911 12.1735 24.8981C11.9645 25.1052 12.5916 25.5192 12.5916 25.9332C11.1283 25.5192 9.45585 26.5543 8.8287 26.5543C7.78344 26.7613 6.73819 26.5543 6.73819 26.5543C6.73819 26.5543 7.15629 27.7964 7.9925 28.4175C8.8287 28.8315 10.083 28.8315 10.083 28.8315C10.083 28.8315 9.87395 29.2456 10.2921 29.4526C10.7102 29.4526 11.1283 28.2105 11.7554 28.2105C13.0097 28.2105 13.6369 27.1754 13.6369 27.1754C13.6369 27.1754 13.8459 28.0034 14.264 28.2105C14.6821 28.4175 15.5183 28.2105 15.5183 28.2105C15.5183 28.2105 15.5183 28.6245 16.1455 28.6245C16.5636 28.8315 17.8179 28.0034 17.8179 28.0034L17.6088 30.2807C17.6088 30.2807 16.5636 30.0736 15.7274 30.0736C15.3093 30.0736 15.7274 31.1087 15.7274 31.1087C15.7274 31.1087 14.8912 31.1087 14.4731 31.5228C14.264 31.7298 14.264 32.3509 14.264 32.3509C14.264 32.3509 13.2188 31.7298 11.7554 31.9368C11.1283 31.9368 10.7102 31.3158 10.2921 31.3158C9.87395 31.3158 9.87395 31.9368 9.45585 31.9368C8.61965 31.9368 7.9925 31.3158 7.9925 31.3158C7.9925 31.3158 8.20155 32.5579 8.61965 33.1789C9.03775 33.8 9.87395 34.4211 9.87395 34.4211C8.61965 34.4211 7.78344 35.2491 7.78344 35.4562C7.9925 35.6632 8.8287 36.6983 8.8287 36.6983C8.8287 36.6983 7.36534 37.1123 7.9925 37.5264C8.8287 38.1474 8.61965 38.7685 9.03775 38.7685C9.45585 38.7685 9.6649 38.1474 10.5011 37.7334C10.9192 37.5264 11.5464 37.5264 11.5464 37.5264C11.5464 37.5264 10.9192 38.1474 11.5464 38.7685C11.9645 39.1825 13.4278 38.7685 13.6369 38.9755C13.0097 39.3896 12.8007 40.0106 12.1735 40.2176C11.3373 40.4247 10.083 40.2176 9.03775 40.6317C8.20155 40.8387 7.36534 41.6668 7.15629 41.4598C7.78345 42.0808 8.8287 42.0808 8.8287 42.0808L7.57439 42.4949C7.57439 42.4949 10.2921 43.944 11.1283 43.737C12.3826 43.3229 13.2188 42.7019 14.4731 42.4949C15.5183 42.4949 17.6088 42.4949 17.6088 42.4949C17.6088 42.4949 14.6821 44.358 14.264 44.5651C13.6369 44.9791 12.5916 44.9791 12.5916 45.1861C12.5916 45.6002 13.6369 45.8072 13.6369 45.8072C13.6369 45.8072 10.9192 47.2563 8.4106 47.4633C7.78344 47.4633 6.32009 47.6704 6.32009 48.4985L4.43863 48.9125C4.43863 48.9125 6.32009 49.5336 7.36534 49.5336C7.9925 49.5336 8.20155 50.1546 8.20155 50.1546C8.20155 50.1546 8.4106 51.3967 7.78344 52.0178C7.15629 51.8108 7.36534 52.4318 7.78344 52.4318C8.20155 52.4318 8.61965 52.0178 8.61965 52.0178C8.61965 52.0178 9.03775 52.6389 9.6649 52.6389C10.083 52.8459 10.7102 52.6389 10.7102 52.6389C10.7102 52.6389 9.87395 53.4669 10.5011 53.881C10.9192 54.295 11.7554 53.4669 11.7554 53.4669C11.7554 53.4669 12.3826 54.088 12.8007 54.295C13.2188 54.502 13.4278 54.088 13.4278 54.088V52.2248C13.4278 52.2248 14.055 53.4669 15.1002 53.674C15.9364 53.881 16.3545 53.674 16.3545 53.674C16.3545 53.674 16.1455 53.4669 16.1455 53.0529C16.1455 52.8459 16.3545 52.6389 16.7726 52.6389C17.1907 52.6389 17.3998 53.0529 17.1907 53.2599C17.1907 53.4669 16.9817 55.3301 16.9817 55.3301C16.9817 55.3301 14.4731 55.9512 14.055 55.9512C13.6369 56.1582 13.2188 56.5722 13.0097 56.5722C12.3826 56.5722 11.5464 56.1582 11.3373 56.5722C11.1283 56.7793 12.5916 57.4003 12.5916 57.4003C12.5916 57.4003 11.5464 57.6073 10.7102 57.4003C9.87395 56.9863 9.87395 57.8144 9.2468 57.8144C8.8287 57.8144 7.9925 57.4003 7.9925 57.6073C7.78345 58.0214 8.20155 58.6424 8.20155 58.6424C8.20155 58.6424 5.69294 57.8144 4.85673 57.1933C4.64768 56.9863 4.22958 55.9512 4.02053 55.9512C3.81148 55.9512 3.81148 57.8144 3.39338 58.2284C2.97527 58.8495 0.884766 58.8495 0.884766 59.2635C0.884766 59.4705 2.34812 59.8846 4.02053 60.0916C5.27483 60.2986 6.94724 60.2986 6.94724 60.2986C6.94724 60.2986 5.90199 60.9197 4.64768 61.1267C4.02053 61.1267 3.81148 61.5407 4.02053 61.5407C4.43863 61.7477 6.94724 61.5407 7.78344 61.3337C8.61965 60.9197 7.9925 61.5407 7.57439 61.7477C6.94724 61.9548 5.69294 61.9548 5.90199 62.3688C5.90199 62.7828 7.15629 62.9899 7.78344 62.9899C8.4106 62.9899 9.45585 62.7828 9.45585 62.7828L12.5916 63.818C13.4278 63.4039 13.0097 62.5758 13.4278 61.7477C13.4278 61.7477 14.264 61.9548 14.8912 61.5407C15.5183 61.1267 15.5183 60.7126 16.1455 60.5056C16.7726 60.2986 17.1907 60.5056 17.1907 60.5056C17.1907 60.5056 16.9817 60.7126 16.1455 61.5407C15.3093 62.3688 15.7274 62.7829 15.3093 63.1969C14.4731 63.818 14.055 64.232 14.6821 64.439C15.5183 64.646 15.9364 65.2671 15.9364 65.2671C15.9364 65.2671 15.3093 64.8531 14.6821 65.0601C14.055 65.2671 13.4278 65.4741 12.8007 65.2671C12.1735 65.2671 11.3373 64.439 10.9192 64.646C10.2921 64.646 9.6649 65.2671 9.6649 65.2671C9.6649 65.2671 10.083 65.8882 11.1283 65.8882C12.8007 65.8882 13.8459 66.3022 13.8459 66.3022L13.0097 66.9233C13.0097 66.9233 13.8459 67.3373 14.6821 67.3373C15.3093 67.3373 16.3545 67.1303 16.5636 67.1303V70.0286H21.5808L21.1627 62.7828C21.1627 62.7828 22.417 62.5758 23.6713 63.1969C24.7166 63.6109 25.5528 65.0601 27.0161 65.6811C27.8523 66.0952 28.8976 65.6811 28.8976 65.6811C27.8523 65.4741 27.8523 64.8531 27.8523 64.8531C27.8523 64.8531 33.4967 67.3373 33.9148 66.5092C34.1239 66.3022 33.0786 65.8882 31.6152 65.0601L32.2424 64.8531C32.2424 64.8531 32.8696 65.0601 32.8696 64.646C32.8696 64.232 30.779 63.1969 29.3157 62.3688C29.1066 62.3688 29.1066 62.1618 28.8976 62.1618C28.4795 61.9548 28.4795 61.3337 28.4795 61.3337L24.9256 60.2986C24.9256 60.2986 28.0614 60.5056 28.8976 60.5056C29.5247 60.5056 30.1519 60.5056 30.779 60.5056C32.2424 60.7126 33.2877 61.1267 34.542 61.1267C35.5872 61.1267 36.4234 60.7126 36.2144 60.5056C35.7963 60.2986 34.542 59.6775 34.542 59.6775C34.542 59.6775 36.8415 60.0916 36.8415 59.6775C36.8415 59.0565 37.6777 59.0565 37.4687 58.8495Z" fill="#8B9C43"/>
</g>
<defs>
<clipPath id="clip0_186_837">
<rect width="252.115" height="69.5588" fill="white" transform="translate(0.884766 0.676758)"/>
</clipPath>
</defs>
</svg>