<svg width="248" height="71" viewBox="0 0 248 71" fill="none" xmlns="http://www.w3.org/2000/svg">
<path d="M41.3557 59.5552C41.1194 59.3433 39.2289 59.5552 38.0473 59.3433C36.6294 59.1313 36.1567 58.2836 34.5025 58.0716C33.7935 58.0716 33.0846 58.4955 33.0846 58.4955L32.6119 57.2239C32.6119 57.2239 33.5572 56.8 33.3209 56.1642C33.0846 55.5284 32.6119 55.5284 31.903 55.5284C31.4303 55.5284 29.7761 56.1642 27.4129 55.9522C25.2861 55.7403 22.4502 54.4687 22.4502 54.4687C22.4502 54.4687 22.4502 53.409 22.6866 52.7731C22.9229 52.1373 23.3955 51.9254 23.3955 51.9254C23.3955 51.9254 24.1045 53.6209 24.3408 54.0448C24.8134 54.6806 25.0498 53.6209 25.0498 53.6209C25.0498 53.6209 25.5224 54.4687 25.995 54.6806C26.4677 54.8925 26.9403 54.0448 27.8856 53.6209C28.5945 53.409 29.5398 53.409 29.5398 53.409L30.2488 51.7134C30.2488 51.7134 32.3756 51.5015 33.0846 50.0179C33.7935 48.5343 33.5572 46.6269 33.5572 46.6269C33.5572 46.6269 34.5025 46.8388 34.5025 46.6269C34.5025 46.4149 33.5572 45.3552 31.903 44.7194C33.0846 44.2955 34.2662 43.8716 34.2662 43.6597C34.2662 43.4478 33.3209 43.0239 33.3209 43.0239C33.3209 43.0239 37.102 42.3881 37.102 41.9642C37.102 41.5403 36.1567 41.9642 35.2114 41.7522C34.2662 41.7522 33.3209 41.1164 33.3209 41.1164C33.3209 41.1164 32.3756 41.7522 31.4303 41.7522C30.4851 41.7522 26.4677 41.1164 26.4677 41.1164C26.4677 41.1164 28.1219 40.4806 28.5945 40.0567L30.0124 39.209H28.5945C28.3582 38.7851 27.8856 38.5731 26.9403 38.5731C25.995 38.5731 25.7587 37.5134 25.2861 37.5134C24.8134 37.5134 24.8134 38.5731 24.8134 38.5731C24.8134 38.5731 23.6318 37.9373 22.4502 38.1493C22.9229 37.5134 24.8134 37.3015 24.8134 36.6657C24.8134 36.4537 23.3955 35.606 23.3955 35.606C23.3955 35.606 26.4677 35.606 26.4677 35.1821C26.4677 34.7582 25.0498 34.5463 25.0498 34.5463C25.0498 34.5463 25.5224 34.1224 26.704 34.1224C27.6493 34.1224 28.5945 34.7582 29.3035 34.7582C30.0124 34.7582 30.4851 34.5463 30.4851 34.5463L29.7761 33.2746C29.7761 33.2746 33.0846 34.7582 33.7935 33.6985C34.0298 33.2746 33.7935 32.8507 33.7935 32.8507C33.7935 32.8507 34.5025 33.0627 34.7388 32.6388C34.9751 32.2149 34.0298 31.3672 32.8483 30.7313C31.903 30.0955 30.0124 30.0955 29.5398 29.4597C30.9577 29.6716 30.7214 28.8239 31.6667 28.8239C32.6119 28.6119 33.3209 29.4597 34.2662 29.8836C35.6841 30.0955 36.8657 30.3075 37.102 29.8836C37.3383 29.4597 36.393 29.4597 36.1567 28.8239C35.4478 28.1881 35.4478 27.5522 34.9751 27.1284C34.5025 26.7045 33.7935 26.2806 33.7935 26.2806C33.7935 26.2806 35.9204 25.8567 35.9204 25.2209C35.9204 25.009 31.903 24.5851 28.8308 23.9493C26.704 23.7373 23.8682 23.3134 23.1592 23.1015C22.9229 23.1015 22.9229 23.1015 22.6866 22.8896C23.3955 22.4657 24.1045 22.0418 24.1045 21.8299C24.1045 21.6179 22.4502 22.0418 21.9776 22.0418C21.9776 21.8298 21.9776 21.8299 21.9776 21.8299C21.9776 21.8299 21.7413 20.7701 24.8134 21.194C26.4677 21.406 28.1219 23.1015 28.8308 22.8896C29.3035 22.6776 28.8308 22.2537 28.8308 22.2537C28.8308 22.2537 29.7761 22.4657 29.7761 22.2537C30.0124 22.0418 28.8308 20.3463 28.1219 19.9224C28.8308 19.7104 28.5945 19.2866 28.1219 19.0746C27.6493 19.0746 25.995 18.2269 25.2861 18.0149H22.6866C22.6866 18.0149 25.7587 17.591 26.2313 17.3791C26.704 17.1672 27.1766 16.9552 27.1766 16.7433C27.1766 16.3194 25.995 16.1075 24.5771 15.8955C23.1592 15.6836 21.2687 15.8955 21.2687 15.8955C21.2687 15.8955 21.2687 15.4716 21.2687 14.4119C21.2687 13.7761 22.9229 12.2925 22.6866 11.8687C22.4502 11.4448 21.2687 11.8687 21.2687 11.8687C21.2687 11.8687 21.2687 10.809 21.2687 10.3851C21.0323 9.53731 21.9776 8.90149 21.9776 8.47761C21.9776 8.05373 21.9776 7.62985 21.505 7.62985C21.2687 7.41791 20.796 7.84179 20.796 7.84179C20.796 7.84179 20.5597 7.41791 21.0323 6.99403C21.7413 6.57015 23.1592 5.93433 23.1592 5.72239C23.1592 5.29851 21.2687 5.08657 20.796 4.23881C20.3234 3.1791 20.3234 1.0597 20.3234 0C20.3234 1.48358 19.8507 4.87463 19.6144 5.93433C19.6144 6.57015 18.1965 6.78209 18.1965 7.41791C18.1965 8.05373 18.9055 8.26567 18.9055 8.26567C18.9055 8.26567 16.7786 7.84179 16.0697 8.26567C16.0697 8.26567 19.6144 9.32537 19.6144 11.2328C18.4328 10.809 17.4876 11.0209 17.4876 11.2328C17.4876 11.4448 18.4328 11.6567 18.6692 12.2925C17.9602 12.0806 16.7786 11.8687 15.8333 11.8687C14.8881 11.8687 13.4701 12.0806 13.4701 12.0806C13.4701 12.0806 14.6517 13.1403 16.5423 12.9284C18.9055 12.7164 19.6144 13.5642 19.6144 13.5642V15.4716C19.6144 15.4716 17.2512 16.1075 16.7786 16.1075C16.306 16.1075 15.8333 16.5313 15.8333 16.5313C15.8333 16.5313 14.4154 16.5313 13.2338 16.9552C12.0522 17.3791 11.8159 18.0149 11.8159 18.0149C11.8159 18.0149 13.4701 18.6507 14.6517 18.8627C17.0149 19.0746 19.3781 19.0746 19.3781 19.0746C19.3781 19.0746 17.9602 19.7104 15.597 19.4985C16.306 19.9224 16.0697 20.5582 16.0697 20.5582C16.0697 20.5582 14.6517 20.1343 13.7065 20.5582C13.7065 20.5582 14.6517 20.7701 14.6517 21.406C12.7612 20.9821 12.7612 19.7104 12.2886 19.4985C11.8159 19.2866 11.3433 19.4985 11.107 19.7104C11.107 20.1343 11.3433 20.5582 11.3433 20.5582C10.398 20.1343 9.45274 20.5582 9.45274 20.5582L10.398 21.8299C10.398 21.8299 8.27114 21.6179 7.56219 21.8299C6.85323 22.0418 6.61692 22.4657 6.61692 22.6776C6.61692 22.6776 12.0522 24.5851 14.6517 23.7373C16.0697 23.3134 19.1418 22.2537 19.1418 22.2537V25.4328C19.1418 25.4328 17.4876 25.8567 15.597 25.4328C14.4154 25.2209 12.9975 24.5851 12.7612 24.797C12.5249 25.009 13.2338 25.4328 13.2338 25.8567C11.5796 25.4328 9.68905 26.4925 8.9801 26.4925C7.79851 26.7045 6.61692 26.4925 6.61692 26.4925C6.61692 26.4925 7.08955 27.7642 8.03483 28.4C8.9801 28.8239 10.398 28.8239 10.398 28.8239C10.398 28.8239 10.1617 29.2478 10.6343 29.4597C11.107 29.4597 11.5796 28.1881 12.2886 28.1881C13.7065 28.1881 14.4154 27.1284 14.4154 27.1284C14.4154 27.1284 14.6517 27.9761 15.1244 28.1881C15.597 28.4 16.5423 28.1881 16.5423 28.1881C16.5423 28.1881 16.5423 28.6119 17.2512 28.6119C17.7239 28.8239 19.1418 27.9761 19.1418 27.9761L18.9055 30.3075C18.9055 30.3075 17.7239 30.0955 16.7786 30.0955C16.306 30.0955 16.7786 31.1552 16.7786 31.1552C16.7786 31.1552 15.8333 31.1552 15.3607 31.5791C15.1244 31.791 15.1244 32.4269 15.1244 32.4269C15.1244 32.4269 13.9428 31.791 12.2886 32.003C11.5796 32.003 11.107 31.3672 10.6343 31.3672C10.1617 31.3672 10.1617 32.003 9.68905 32.003C8.74378 32.003 8.03483 31.3672 8.03483 31.3672C8.03483 31.3672 8.27114 32.6388 8.74378 33.2746C9.21642 33.9104 10.1617 34.5463 10.1617 34.5463C8.74378 34.5463 7.79851 35.394 7.79851 35.606C8.03483 35.8179 8.9801 36.8776 8.9801 36.8776C8.9801 36.8776 7.32587 37.3015 8.03483 37.7254C8.9801 38.3612 8.74378 38.997 9.21642 38.997C9.68905 38.997 9.92537 38.3612 10.8706 37.9373C11.3433 37.7254 12.0522 37.7254 12.0522 37.7254C12.0522 37.7254 11.3433 38.3612 12.0522 38.997C12.5249 39.4209 14.1791 38.997 14.4154 39.209C13.7065 39.6328 13.4701 40.2687 12.7612 40.4806C11.8159 40.6925 10.398 40.4806 9.21642 40.9045C8.27114 41.1164 7.32587 41.9642 7.08955 41.7522C7.79851 42.3881 8.9801 42.3881 8.9801 42.3881L7.56219 42.8119C7.56219 42.8119 10.6343 44.2955 11.5796 44.0836C12.9975 43.6597 13.9428 43.0239 15.3607 42.8119C16.5423 42.8119 18.9055 42.8119 18.9055 42.8119C18.9055 42.8119 15.597 44.7194 15.1244 44.9313C14.4154 45.3552 13.2338 45.3552 13.2338 45.5672C13.2338 45.991 14.4154 46.203 14.4154 46.203C14.4154 46.203 11.3433 47.6866 8.50746 47.8985C7.79851 47.8985 6.14428 48.1104 6.14428 48.9582L4.01741 49.3821C4.01741 49.3821 6.14428 50.0179 7.32587 50.0179C8.03483 50.0179 8.27114 50.6537 8.27114 50.6537C8.27114 50.6537 8.50746 51.9254 7.79851 52.5612C7.08955 52.3492 7.32587 52.9851 7.79851 52.9851C8.27114 52.9851 8.74378 52.5612 8.74378 52.5612C8.74378 52.5612 9.21642 53.197 9.92537 53.197C10.398 53.409 11.107 53.197 11.107 53.197C11.107 53.197 10.1617 54.0448 10.8706 54.4687C11.3433 54.8925 12.2886 54.0448 12.2886 54.0448C12.2886 54.0448 12.9975 54.6806 13.4701 54.8925C13.9428 55.1045 14.1791 54.6806 14.1791 54.6806V52.7731C14.1791 52.7731 14.8881 54.0448 16.0697 54.2567C17.0149 54.4687 17.4876 54.2567 17.4876 54.2567C17.4876 54.2567 17.2512 54.0448 17.2512 53.6209C17.2512 53.409 17.4876 53.197 17.9602 53.197C18.4328 53.197 18.6692 53.6209 18.4328 53.8328C18.4328 54.0448 18.1965 55.9522 18.1965 55.9522C18.1965 55.9522 15.3607 56.5881 14.8881 56.5881C14.4154 56.8 13.9428 57.2239 13.7065 57.2239C12.9975 57.2239 12.0522 56.8 11.8159 57.2239C11.5796 57.4358 13.2338 58.0716 13.2338 58.0716C13.2338 58.0716 12.0522 58.2836 11.107 58.0716C10.1617 57.6478 10.1617 58.4955 9.45274 58.4955C8.9801 58.4955 8.03483 58.0716 8.03483 58.2836C7.79851 58.7075 8.27114 59.3433 8.27114 59.3433C8.27114 59.3433 5.43532 58.4955 4.49005 57.8597C4.25373 57.6478 3.78109 56.5881 3.54478 56.5881C3.30846 56.5881 3.30846 58.4955 2.83582 58.9194C2.36318 59.5552 0 59.5552 0 59.9791C0 60.191 1.65423 60.6149 3.54478 60.8269C4.96269 61.0388 6.85323 61.0388 6.85323 61.0388C6.85323 61.0388 5.67164 61.6746 4.25373 61.8866C3.54478 61.8866 3.30846 62.3104 3.54478 62.3104C4.01741 62.5224 6.85323 62.3104 7.79851 62.0985C8.74378 61.6746 8.03483 62.3104 7.56219 62.5224C6.85323 62.7343 5.43532 62.7343 5.67164 63.1582C5.67164 63.5821 7.08955 63.794 7.79851 63.794C8.50746 63.794 9.68905 63.5821 9.68905 63.5821L13.2338 64.6418C14.1791 64.2179 13.7065 63.3701 14.1791 62.5224C14.1791 62.5224 15.1244 62.7343 15.8333 62.3104C16.5423 61.8866 16.5423 61.4627 17.2512 61.2507C17.9602 61.0388 18.4328 61.2507 18.4328 61.2507C18.4328 61.2507 18.1965 61.4627 17.2512 62.3104C16.306 63.1582 16.7786 63.5821 16.306 64.006C15.3607 64.6418 14.8881 65.0657 15.597 65.2776C16.5423 65.4895 17.0149 66.1254 17.0149 66.1254C17.0149 66.1254 16.306 65.7015 15.597 65.9134C14.8881 66.1254 14.1791 66.3373 13.4701 66.1254C12.7612 66.1254 11.8159 65.2776 11.3433 65.4895C10.6343 65.4895 9.92537 66.1254 9.92537 66.1254C9.92537 66.1254 10.398 66.7612 11.5796 66.7612C13.4701 66.7612 14.6517 67.1851 14.6517 67.1851L13.7065 67.8209C13.7065 67.8209 14.6517 68.2448 15.597 68.2448C16.306 68.2448 17.4876 68.0328 17.7239 68.0328V71H23.3955L22.9229 63.5821C22.9229 63.5821 24.3408 63.3701 25.7587 64.006C26.9403 64.4298 27.8856 65.9134 29.5398 66.5492C30.4851 66.9731 31.6667 66.5492 31.6667 66.5492C30.4851 66.3373 30.4851 65.7015 30.4851 65.7015C30.4851 65.7015 36.8657 68.2448 37.3383 67.397C37.5746 67.1851 36.393 66.7612 34.7388 65.9134L35.4478 65.7015C35.4478 65.7015 36.1567 65.9134 36.1567 65.4895C36.1567 65.0657 33.7935 64.006 32.1393 63.1582C31.903 63.1582 31.903 62.9463 31.6667 62.9463C31.194 62.7343 31.194 62.0985 31.194 62.0985L27.1766 61.0388C27.1766 61.0388 30.7214 61.2507 31.6667 61.2507C32.3756 61.2507 33.0846 61.2507 33.7935 61.2507C35.4478 61.4627 36.6294 61.8866 38.0473 61.8866C39.2289 61.8866 40.1741 61.4627 39.9378 61.2507C39.4652 61.0388 38.0473 60.403 38.0473 60.403C38.0473 60.403 40.6468 60.8269 40.6468 60.403C40.6468 59.7672 41.592 59.7672 41.3557 59.5552Z" fill="#8B9C43"/>
<path d="M60.328 50.238C58.1293 50.238 56.1007 49.728 54.242 48.708C52.406 47.6653 50.944 46.226 49.856 44.39C48.7907 42.5313 48.258 40.446 48.258 38.134C48.258 35.822 48.7907 33.748 49.856 31.912C50.944 30.076 52.406 28.648 54.242 27.628C56.1007 26.5853 58.1293 26.064 60.328 26.064C62.5493 26.064 64.578 26.5853 66.414 27.628C68.2727 28.648 69.7347 30.076 70.8 31.912C71.8653 33.748 72.398 35.822 72.398 38.134C72.398 40.446 71.8653 42.5313 70.8 44.39C69.7347 46.226 68.2727 47.6653 66.414 48.708C64.578 49.728 62.5493 50.238 60.328 50.238ZM60.328 46.872C61.892 46.872 63.286 46.5207 64.51 45.818C65.734 45.0927 66.686 44.0727 67.366 42.758C68.0687 41.4207 68.42 39.8793 68.42 38.134C68.42 36.3887 68.0687 34.8587 67.366 33.544C66.686 32.2293 65.734 31.2207 64.51 30.518C63.286 29.8153 61.892 29.464 60.328 29.464C58.764 29.464 57.37 29.8153 56.146 30.518C54.922 31.2207 53.9587 32.2293 53.256 33.544C52.576 34.8587 52.236 36.3887 52.236 38.134C52.236 39.8793 52.576 41.4207 53.256 42.758C53.9587 44.0727 54.922 45.0927 56.146 45.818C57.37 46.5207 58.764 46.872 60.328 46.872ZM80.0881 33.986C80.6548 33.034 81.4028 32.2973 82.3321 31.776C83.2841 31.232 84.4061 30.96 85.6981 30.96V34.972H84.7121C83.1934 34.972 82.0374 35.3573 81.2441 36.128C80.4734 36.8987 80.0881 38.236 80.0881 40.14V50H76.2121V31.266H80.0881V33.986ZM106.431 40.174C106.431 40.8767 106.386 41.5113 106.295 42.078H91.9809C92.0943 43.574 92.6496 44.7753 93.6469 45.682C94.6443 46.5887 95.8683 47.042 97.3189 47.042C99.4043 47.042 100.878 46.1693 101.739 44.424H105.921C105.354 46.1467 104.323 47.5633 102.827 48.674C101.354 49.762 99.5176 50.306 97.3189 50.306C95.5283 50.306 93.9189 49.9093 92.4909 49.116C91.0856 48.3 89.9749 47.1667 89.1589 45.716C88.3656 44.2427 87.9689 42.5427 87.9689 40.616C87.9689 38.6893 88.3543 37.0007 89.1249 35.55C89.9183 34.0767 91.0176 32.9433 92.4229 32.15C93.8509 31.3567 95.4829 30.96 97.3189 30.96C99.0869 30.96 100.662 31.3453 102.045 32.116C103.428 32.8867 104.504 33.9747 105.275 35.38C106.046 36.7627 106.431 38.3607 106.431 40.174ZM102.385 38.95C102.362 37.522 101.852 36.3773 100.855 35.516C99.8576 34.6547 98.6223 34.224 97.1489 34.224C95.8116 34.224 94.6669 34.6547 93.7149 35.516C92.7629 36.3547 92.1963 37.4993 92.0149 38.95H102.385ZM117.793 30.96C119.244 30.96 120.525 31.2547 121.635 31.844C122.769 32.4107 123.653 33.1247 124.287 33.986V31.266H128.197V50.306C128.197 52.0287 127.835 53.5587 127.109 54.896C126.384 56.256 125.33 57.3213 123.947 58.092C122.587 58.8627 120.955 59.248 119.051 59.248C116.513 59.248 114.405 58.6473 112.727 57.446C111.05 56.2673 110.098 54.658 109.871 52.618H113.713C114.008 53.5927 114.631 54.3747 115.583 54.964C116.558 55.576 117.714 55.882 119.051 55.882C120.615 55.882 121.873 55.406 122.825 54.454C123.8 53.502 124.287 52.1193 124.287 50.306V47.178C123.63 48.062 122.735 48.81 121.601 49.422C120.491 50.0113 119.221 50.306 117.793 50.306C116.161 50.306 114.665 49.898 113.305 49.082C111.968 48.2433 110.903 47.0873 110.109 45.614C109.339 44.118 108.953 42.4293 108.953 40.548C108.953 38.6667 109.339 37.0007 110.109 35.55C110.903 34.0993 111.968 32.9773 113.305 32.184C114.665 31.368 116.161 30.96 117.793 30.96ZM124.287 40.616C124.287 39.324 124.015 38.202 123.471 37.25C122.95 36.298 122.259 35.5727 121.397 35.074C120.536 34.5753 119.607 34.326 118.609 34.326C117.612 34.326 116.683 34.5753 115.821 35.074C114.96 35.55 114.257 36.264 113.713 37.216C113.192 38.1453 112.931 39.256 112.931 40.548C112.931 41.84 113.192 42.9733 113.713 43.948C114.257 44.9227 114.96 45.6707 115.821 46.192C116.705 46.6907 117.635 46.94 118.609 46.94C119.607 46.94 120.536 46.6907 121.397 46.192C122.259 45.6933 122.95 44.968 123.471 44.016C124.015 43.0413 124.287 41.908 124.287 40.616ZM141.414 50.306C139.646 50.306 138.048 49.9093 136.62 49.116C135.192 48.3 134.07 47.1667 133.254 45.716C132.438 44.2427 132.03 42.5427 132.03 40.616C132.03 38.712 132.45 37.0233 133.288 35.55C134.127 34.0767 135.272 32.9433 136.722 32.15C138.173 31.3567 139.794 30.96 141.584 30.96C143.375 30.96 144.996 31.3567 146.446 32.15C147.897 32.9433 149.042 34.0767 149.88 35.55C150.719 37.0233 151.138 38.712 151.138 40.616C151.138 42.52 150.708 44.2087 149.846 45.682C148.985 47.1553 147.806 48.3 146.31 49.116C144.837 49.9093 143.205 50.306 141.414 50.306ZM141.414 46.94C142.412 46.94 143.341 46.702 144.202 46.226C145.086 45.75 145.8 45.036 146.344 44.084C146.888 43.132 147.16 41.976 147.16 40.616C147.16 39.256 146.9 38.1113 146.378 37.182C145.857 36.23 145.166 35.516 144.304 35.04C143.443 34.564 142.514 34.326 141.516 34.326C140.519 34.326 139.59 34.564 138.728 35.04C137.89 35.516 137.221 36.23 136.722 37.182C136.224 38.1113 135.974 39.256 135.974 40.616C135.974 42.6333 136.484 44.1973 137.504 45.308C138.547 46.396 139.85 46.94 141.414 46.94ZM164.422 30.96C165.895 30.96 167.21 31.266 168.366 31.878C169.545 32.49 170.463 33.3967 171.12 34.598C171.777 35.7993 172.106 37.25 172.106 38.95V50H168.264V39.528C168.264 37.8507 167.845 36.57 167.006 35.686C166.167 34.7793 165.023 34.326 163.572 34.326C162.121 34.326 160.965 34.7793 160.104 35.686C159.265 36.57 158.846 37.8507 158.846 39.528V50H154.97V31.266H158.846V33.408C159.481 32.6373 160.285 32.0367 161.26 31.606C162.257 31.1753 163.311 30.96 164.422 30.96ZM178.614 50.238C177.911 50.238 177.322 50 176.846 49.524C176.37 49.048 176.132 48.4587 176.132 47.756C176.132 47.0533 176.37 46.464 176.846 45.988C177.322 45.512 177.911 45.274 178.614 45.274C179.294 45.274 179.872 45.512 180.348 45.988C180.824 46.464 181.062 47.0533 181.062 47.756C181.062 48.4587 180.824 49.048 180.348 49.524C179.872 50 179.294 50.238 178.614 50.238ZM192.799 30.96C194.25 30.96 195.531 31.2547 196.641 31.844C197.775 32.4107 198.659 33.1247 199.293 33.986V31.266H203.203V50.306C203.203 52.0287 202.841 53.5587 202.115 54.896C201.39 56.256 200.336 57.3213 198.953 58.092C197.593 58.8627 195.961 59.248 194.057 59.248C191.519 59.248 189.411 58.6473 187.733 57.446C186.056 56.2673 185.104 54.658 184.877 52.618H188.719C189.014 53.5927 189.637 54.3747 190.589 54.964C191.564 55.576 192.72 55.882 194.057 55.882C195.621 55.882 196.879 55.406 197.831 54.454C198.806 53.502 199.293 52.1193 199.293 50.306V47.178C198.636 48.062 197.741 48.81 196.607 49.422C195.497 50.0113 194.227 50.306 192.799 50.306C191.167 50.306 189.671 49.898 188.311 49.082C186.974 48.2433 185.909 47.0873 185.115 45.614C184.345 44.118 183.959 42.4293 183.959 40.548C183.959 38.6667 184.345 37.0007 185.115 35.55C185.909 34.0993 186.974 32.9773 188.311 32.184C189.671 31.368 191.167 30.96 192.799 30.96ZM199.293 40.616C199.293 39.324 199.021 38.202 198.477 37.25C197.956 36.298 197.265 35.5727 196.403 35.074C195.542 34.5753 194.613 34.326 193.615 34.326C192.618 34.326 191.689 34.5753 190.827 35.074C189.966 35.55 189.263 36.264 188.719 37.216C188.198 38.1453 187.937 39.256 187.937 40.548C187.937 41.84 188.198 42.9733 188.719 43.948C189.263 44.9227 189.966 45.6707 190.827 46.192C191.711 46.6907 192.641 46.94 193.615 46.94C194.613 46.94 195.542 46.6907 196.403 46.192C197.265 45.6933 197.956 44.968 198.477 44.016C199.021 43.0413 199.293 41.908 199.293 40.616ZM216.42 50.306C214.652 50.306 213.054 49.9093 211.626 49.116C210.198 48.3 209.076 47.1667 208.26 45.716C207.444 44.2427 207.036 42.5427 207.036 40.616C207.036 38.712 207.455 37.0233 208.294 35.55C209.133 34.0767 210.277 32.9433 211.728 32.15C213.179 31.3567 214.799 30.96 216.59 30.96C218.381 30.96 220.001 31.3567 221.452 32.15C222.903 32.9433 224.047 34.0767 224.886 35.55C225.725 37.0233 226.144 38.712 226.144 40.616C226.144 42.52 225.713 44.2087 224.852 45.682C223.991 47.1553 222.812 48.3 221.316 49.116C219.843 49.9093 218.211 50.306 216.42 50.306ZM216.42 46.94C217.417 46.94 218.347 46.702 219.208 46.226C220.092 45.75 220.806 45.036 221.35 44.084C221.894 43.132 222.166 41.976 222.166 40.616C222.166 39.256 221.905 38.1113 221.384 37.182C220.863 36.23 220.171 35.516 219.31 35.04C218.449 34.564 217.519 34.326 216.522 34.326C215.525 34.326 214.595 34.564 213.734 35.04C212.895 35.516 212.227 36.23 211.728 37.182C211.229 38.1113 210.98 39.256 210.98 40.616C210.98 42.6333 211.49 44.1973 212.51 45.308C213.553 46.396 214.856 46.94 216.42 46.94ZM237.218 46.532L242.522 31.266H246.636L239.496 50H234.872L227.766 31.266H231.914L237.218 46.532Z" fill="white"/>
</svg>
