<svg viewBox="0 0 81 24" fill="none" xmlns="http://www.w3.org/2000/svg">
<path d="M2.128 23.256C1.46667 23.256 0.954667 23.0853 0.592 22.744C0.250667 22.3813 0.0800002 21.8693 0.0800002 21.208V9.112C0.0800002 8.45067 0.250667 7.94933 0.592 7.608C0.933333 7.26667 1.41333 7.096 2.032 7.096C2.65067 7.096 3.13067 7.26667 3.472 7.608C3.81333 7.94933 3.984 8.45067 3.984 9.112V11.128H3.664C3.96267 9.848 4.54933 8.87733 5.424 8.216C6.29867 7.55467 7.46133 7.16 8.912 7.032C9.36 6.98933 9.712 7.10667 9.968 7.384C10.2453 7.64 10.4053 8.04533 10.448 8.6C10.4907 9.13333 10.3627 9.57067 10.064 9.912C9.78667 10.232 9.36 10.424 8.784 10.488L8.08 10.552C6.77867 10.68 5.79733 11.0853 5.136 11.768C4.47467 12.4293 4.144 13.368 4.144 14.584V21.208C4.144 21.8693 3.97333 22.3813 3.632 22.744C3.29067 23.0853 2.78933 23.256 2.128 23.256ZM20.0733 23.32C18.3026 23.32 16.7773 22.9893 15.4973 22.328C14.2173 21.6667 13.2253 20.728 12.5213 19.512C11.8386 18.296 11.4973 16.856 11.4973 15.192C11.4973 13.5707 11.8279 12.152 12.4893 10.936C13.1719 9.72 14.0999 8.77067 15.2733 8.088C16.4679 7.384 17.8226 7.032 19.3373 7.032C20.4466 7.032 21.4386 7.21333 22.3133 7.576C23.2093 7.93867 23.9666 8.46133 24.5853 9.144C25.2253 9.82667 25.7053 10.6587 26.0253 11.64C26.3666 12.6 26.5373 13.688 26.5373 14.904C26.5373 15.288 26.3986 15.5867 26.1213 15.8C25.8653 15.992 25.4919 16.088 25.0013 16.088H14.7293V13.784H23.7213L23.2093 14.264C23.2093 13.2827 23.0599 12.4613 22.7613 11.8C22.4839 11.1387 22.0679 10.6373 21.5133 10.296C20.9799 9.93333 20.3079 9.752 19.4973 9.752C18.6013 9.752 17.8333 9.96533 17.1933 10.392C16.5746 10.7973 16.0946 11.384 15.7533 12.152C15.4333 12.8987 15.2733 13.7947 15.2733 14.84V15.064C15.2733 16.8133 15.6786 18.1253 16.4893 19C17.3213 19.8533 18.5373 20.28 20.1373 20.28C20.6919 20.28 21.3106 20.216 21.9933 20.088C22.6973 19.9387 23.3586 19.6933 23.9773 19.352C24.4253 19.096 24.8199 18.9893 25.1613 19.032C25.5026 19.0533 25.7693 19.1707 25.9613 19.384C26.1746 19.5973 26.3026 19.864 26.3453 20.184C26.3879 20.4827 26.3239 20.792 26.1533 21.112C26.0039 21.432 25.7373 21.7093 25.3533 21.944C24.6066 22.4133 23.7426 22.7653 22.7613 23C21.8013 23.2133 20.9053 23.32 20.0733 23.32ZM36.937 23.32C35.2943 23.32 33.865 22.9893 32.649 22.328C31.433 21.6453 30.4943 20.6853 29.833 19.448C29.1717 18.2107 28.841 16.76 28.841 15.096C28.841 13.8373 29.0223 12.7173 29.385 11.736C29.769 10.7333 30.313 9.89067 31.017 9.208C31.721 8.504 32.5743 7.97067 33.577 7.608C34.5797 7.224 35.6997 7.032 36.937 7.032C37.641 7.032 38.3983 7.128 39.209 7.32C40.041 7.512 40.8197 7.832 41.545 8.28C41.8863 8.49333 42.1103 8.74933 42.217 9.048C42.3237 9.34667 42.345 9.656 42.281 9.976C42.217 10.2747 42.0783 10.5413 41.865 10.776C41.673 10.9893 41.4277 11.128 41.129 11.192C40.8303 11.2347 40.4997 11.16 40.137 10.968C39.6677 10.6907 39.1877 10.488 38.697 10.36C38.2063 10.2107 37.737 10.136 37.289 10.136C36.585 10.136 35.9663 10.2533 35.433 10.488C34.8997 10.7013 34.441 11.0213 34.057 11.448C33.6943 11.8533 33.417 12.3653 33.225 12.984C33.033 13.6027 32.937 14.3173 32.937 15.128C32.937 16.7067 33.3103 17.9547 34.057 18.872C34.825 19.768 35.9023 20.216 37.289 20.216C37.737 20.216 38.1957 20.152 38.665 20.024C39.1557 19.896 39.6463 19.6933 40.137 19.416C40.4997 19.224 40.8197 19.16 41.097 19.224C41.3957 19.288 41.641 19.4373 41.833 19.672C42.025 19.8853 42.1423 20.152 42.185 20.472C42.2277 20.7707 42.185 21.0693 42.057 21.368C41.9503 21.6667 41.737 21.912 41.417 22.104C40.713 22.5307 39.9663 22.84 39.177 23.032C38.3877 23.224 37.641 23.32 36.937 23.32ZM49.857 23.32C48.7263 23.32 47.713 23.1067 46.817 22.68C45.9423 22.232 45.249 21.6347 44.737 20.888C44.2463 20.1413 44.001 19.2987 44.001 18.36C44.001 17.208 44.2997 16.3013 44.897 15.64C45.4943 14.9573 46.465 14.4667 47.809 14.168C49.153 13.8693 50.9557 13.72 53.217 13.72H54.817V16.024H53.249C51.9263 16.024 50.8703 16.088 50.081 16.216C49.2917 16.344 48.7263 16.568 48.385 16.888C48.065 17.1867 47.905 17.6133 47.905 18.168C47.905 18.872 48.1503 19.448 48.641 19.896C49.1317 20.344 49.8143 20.568 50.689 20.568C51.393 20.568 52.0117 20.408 52.545 20.088C53.0997 19.7467 53.537 19.288 53.857 18.712C54.177 18.136 54.337 17.4747 54.337 16.728V13.048C54.337 11.9813 54.1023 11.2133 53.633 10.744C53.1637 10.2747 52.3743 10.04 51.265 10.04C50.6463 10.04 49.9743 10.1147 49.249 10.264C48.545 10.4133 47.7983 10.6693 47.009 11.032C46.6037 11.224 46.241 11.2773 45.921 11.192C45.6223 11.1067 45.3877 10.936 45.217 10.68C45.0463 10.4027 44.961 10.104 44.961 9.784C44.961 9.464 45.0463 9.15467 45.217 8.856C45.3877 8.536 45.6757 8.30133 46.081 8.152C47.0623 7.74667 48.001 7.45867 48.897 7.288C49.8143 7.11733 50.6463 7.032 51.393 7.032C52.929 7.032 54.1877 7.26667 55.169 7.736C56.1717 8.20533 56.9183 8.92 57.409 9.88C57.8997 10.8187 58.145 12.0347 58.145 13.528V21.208C58.145 21.8693 57.985 22.3813 57.665 22.744C57.345 23.0853 56.8863 23.256 56.289 23.256C55.6917 23.256 55.2223 23.0853 54.881 22.744C54.561 22.3813 54.401 21.8693 54.401 21.208V19.672H54.657C54.5077 20.4187 54.209 21.0693 53.761 21.624C53.3343 22.1573 52.7903 22.5733 52.129 22.872C51.4677 23.1707 50.7103 23.32 49.857 23.32ZM67.549 23.32C65.7783 23.32 64.445 22.8187 63.549 21.816C62.653 20.792 62.205 19.2987 62.205 17.336V2.2C62.205 1.53867 62.3757 1.03733 62.717 0.695999C63.0583 0.354665 63.549 0.183998 64.189 0.183998C64.829 0.183998 65.3197 0.354665 65.661 0.695999C66.0237 1.03733 66.205 1.53867 66.205 2.2V17.144C66.205 18.1253 66.4077 18.8507 66.813 19.32C67.2397 19.7893 67.837 20.024 68.605 20.024C68.7757 20.024 68.9357 20.024 69.085 20.024C69.2343 20.0027 69.3837 19.9813 69.533 19.96C69.8317 19.9173 70.0343 20.0027 70.141 20.216C70.2477 20.408 70.301 20.8133 70.301 21.432C70.301 21.9653 70.1943 22.3813 69.981 22.68C69.7677 22.9787 69.4157 23.16 68.925 23.224C68.7117 23.2453 68.4877 23.2667 68.253 23.288C68.0183 23.3093 67.7837 23.32 67.549 23.32ZM77.7678 23.32C75.9971 23.32 74.6638 22.8187 73.7678 21.816C72.8718 20.792 72.4238 19.2987 72.4238 17.336V2.2C72.4238 1.53867 72.5944 1.03733 72.9358 0.695999C73.2771 0.354665 73.7678 0.183998 74.4078 0.183998C75.0478 0.183998 75.5384 0.354665 75.8798 0.695999C76.2424 1.03733 76.4238 1.53867 76.4238 2.2V17.144C76.4238 18.1253 76.6264 18.8507 77.0318 19.32C77.4584 19.7893 78.0558 20.024 78.8238 20.024C78.9944 20.024 79.1544 20.024 79.3038 20.024C79.4531 20.0027 79.6024 19.9813 79.7517 19.96C80.0504 19.9173 80.2531 20.0027 80.3598 20.216C80.4664 20.408 80.5198 20.8133 80.5198 21.432C80.5198 21.9653 80.4131 22.3813 80.1998 22.68C79.9864 22.9787 79.6344 23.16 79.1438 23.224C78.9304 23.2453 78.7064 23.2667 78.4718 23.288C78.2371 23.3093 78.0024 23.32 77.7678 23.32Z" fill="#7E00FD"/>
</svg>
