<svg width="13" height="16" viewBox="0 0 13 16" fill="none" xmlns="http://www.w3.org/2000/svg">
<path d="M6.5 8.38095L3.61111 11.4286H5.77778V16H7.22222V11.4286H9.38889M11.5556 1.52381H10.8333V0H9.38889V1.52381H3.61111V0H2.16667V1.52381H1.44444C0.65 1.52381 0 2.20952 0 3.04762V13.7143C0 14.1184 0.152182 14.506 0.423068 14.7918C0.693954 15.0776 1.06135 15.2381 1.44444 15.2381H4.33333V13.7143H1.44444V5.33333H11.5556V13.7143H8.66667V15.2381H11.5556C12.3572 15.2381 13 14.56 13 13.7143V3.04762C13 2.64348 12.8478 2.25589 12.5769 1.97012C12.306 1.68435 11.9386 1.52381 11.5556 1.52381Z" fill="#181818"/>
</svg>
